<svg id="Layer_1" data-name="Layer 1" xmlns="http://www.w3.org/2000/svg" viewBox="0 0 722.59 713.83"><defs><style>.cls-1{fill:#fefefe;}.cls-2{fill:#4e4e4e;}.cls-3{fill:#101010;}.cls-4{fill:#080808;}.cls-5{fill:#2f2f2f;}.cls-6{fill:#898989;}.cls-7{fill:#fff;}.cls-8{fill:#b9b9b9;}.cls-9{fill:#a2a2a2;}.cls-10{fill:#888;}.cls-11{fill:#d8d8d8;}</style></defs><title>ash</title><path class="cls-1" d="M441.55,639.84H417V640h-.14c0,6.95-.08,13.91.13,20.86.09,2.92-.84,3.82-3.75,3.74-6.94-.2-13.9-.11-20.85-.12v.13h-.14c0,15.13,0,30.26.13,45.39,0,2.81-.65,3.93-3.67,3.82-7-.25-14-.17-21-.23H269.28q-38.68.09-77.36.16c-30.06,0-60.13-.07-90.19.11-3.89,0-5-1.05-4.76-4.85.33-5.28-.09-10.6.15-15.88.14-3.11-.76-4.13-4-4.05-9.39.21-18.79-.1-28.18.15-3.67.1-5.14-.65-4.92-4.69.36-6.64.09-13.32.08-20-6.83,0-13.66-.21-20.48.06-3.5.14-4.21-1.15-4.18-4.37.16-13.48-.05-27,.15-40.44.06-3.56-.85-4.78-4.51-4.57-5.45.31-10.92,0-16.38.13-2.76.09-3.88-.56-3.87-3.62q.2-33.29,0-66.56c0-2.9.83-3.84,3.74-3.75,7,.21,13.9.11,20.86.13v-.14h.13c0-15,0-29.92-.13-44.89,0-3.23.72-4.48,4.2-4.34,6.81.26,13.64.07,20.46.06,0-15,.11-30-.06-45,0-3.36.95-4.38,4.29-4.25,6.77.25,13.57.11,20.36.13V443h.09c0-6.8.14-13.6-.12-20.38-.14-3.38.95-4.31,4.28-4.26,15,.18,30,.11,45,.13v-.1h.1c0-7,.08-13.92-.12-20.88-.08-2.89.82-3.8,3.73-3.75,9.55.16,19.11-.08,28.65.13,3.39.08,4.9-.59,4.68-4.39-.34-5.61-.22-11.25,0-16.88.09-2.71-.82-3.55-3.49-3.46-5.45.17-10.93-.18-16.37.12-3.7.21-5.1-.69-4.9-4.7.33-6.63,0-13.29,0-19.94-6.48,0-13-.24-19.44.06-3.89.17-5.26-.79-5.16-5,.29-13.3,0-26.61.21-39.92.06-3.65-1-4.69-4.59-4.5-5.45.29-10.92-.06-16.38.13-2.86.1-3.81-.75-3.79-3.71.16-23.37.17-46.74.22-70.11L97,197c-7,0-14-.18-20.94,0-2.93.07-3.73-.89-3.71-3.76.1-22.13.13-44.26,0-66.39,0-3.45,1.38-3.83,4.22-3.79,6.76.11,13.53-.06,20.29-.12.06-6.92.26-13.85.12-20.76-.06-2.9.84-3.79,3.73-3.74,6.92.14,13.84-.05,20.77-.11.06-6.77.31-13.54.09-20.29-.11-3.44,1.06-4.24,4.32-4.21,14.93.1,29.87,0,44.8-.11.06-6.78.32-13.56.1-20.32-.12-3.5,1.15-4.22,4.36-4.18,15,.17,29.93.11,44.9.13v-.11h.1c0-6.79.13-13.59-.13-20.37-.14-3.39.95-4.31,4.28-4.27,15,.19,30,.11,45,.13v-.09h.1c0-7,.08-13.93-.12-20.89C269.18.83,270.11,0,273,0q57.84.14,115.68,0c2.9,0,3.83.83,3.74,3.74-.2,7-.1,13.93-.12,20.89h.1v.09c15,0,30,.06,45-.13,3.32,0,4.42.88,4.28,4.26-.26,6.79-.11,13.59-.13,20.38h.1v.1c6.8,0,13.6.14,20.38-.13,3.39-.13,4.3,1,4.26,4.29-.18,15-.11,30-.13,45h.1v.1c6.79,0,13.58.12,20.36-.13,3.32-.13,4.33.87,4.29,4.24-.19,13.47.08,26.94-.18,40.4-.08,4,1.15,4.75,4.87,4.73,29.49-.15,59,0,88.48-.19,4.3,0,5.54,1.1,5.28,5.35-.38,6.41-.14,12.86-.16,19.29h.14v.14c7.1,0,14.21,0,21.31-.1,2.36,0,3.33.63,3.27,3.14q-.21,9.19,0,18.39c.06,2.51-.91,3.19-3.27,3.15-7.1-.14-14.21-.09-21.31-.11V197h-.14c0,6.78-.13,13.58.14,20.35.14,3.39-1,4.3-4.29,4.26-15-.19-29.95-.11-44.93-.14v.14h-.15c0,14.95-.08,29.9.17,44.85.06,3.8-1.31,4.52-4.69,4.37-5.44-.26-10.91.08-16.36-.13-2.94-.12-3.78.9-3.71,3.77.16,6.94,0,13.89,0,20.84h.13v.12c7.11,0,14.22,0,21.34-.1,2.39,0,3.26.7,3.24,3.18q-.13,21.47,0,42.93c0,2.47-.83,3.23-3.24,3.19-7.11-.14-14.23-.09-21.34-.11v.13h-.12c0,7-.09,13.91.11,20.85.08,2.91-.82,3.84-3.74,3.75-7-.19-13.91-.09-20.87-.1v.1h-.11c0,6.79-.14,13.59.12,20.38.14,3.39-1,4.29-4.29,4.25-15-.18-30-.11-44.94-.12v.1h-.11q0,12.24,0,24.49h.14v.13c15,0,30,0,44.93-.13,3.33-.05,4.43.87,4.29,4.26-.27,6.77-.12,13.56-.14,20.35h.14v.13c6.95,0,13.9.08,20.85-.12,2.9-.08,3.84.82,3.75,3.74-.21,7-.11,13.91-.13,20.86h.14v.13c6.95,0,13.91.08,20.85-.12,2.92-.09,3.83.83,3.75,3.75-.21,6.94-.11,13.9-.12,20.85h.13v.14l49.09,0v-.12h.13c0-7.12,0-14.24-.11-21.36,0-2.42.75-3.23,3.2-3.22q33.75.11,67.51,0c2.45,0,3.24.8,3.2,3.22-.14,7.12-.09,14.24-.11,21.36h.13v.12c6.79,0,13.58.14,20.36-.13,3.38-.13,4.3,1,4.26,4.29-.19,15-.11,30-.13,44.94h.12v.13c7.12,0,14.24,0,21.36-.1,2.42,0,3.23.74,3.23,3.19q-.12,33.75,0,67.51c0,2.45-.8,3.25-3.23,3.2-7.12-.13-14.24-.07-21.37-.09v.11h-.1c0,6.79-.15,13.6.12,20.38.14,3.42-1,4.26-4.31,4.24-23.17-.15-46.35-.11-69.52-.13V640h-.14c0,6.79-.13,13.58.14,20.35.14,3.39-1,4.31-4.29,4.26-13.49-.17-27,0-40.47-.15-3.48,0-4.83.74-4.61,4.46.32,5.45,0,10.93.13,16.39.08,2.71-.49,3.91-3.59,3.9q-45.58-.15-91.18,0c-2.88,0-3.86-.78-3.78-3.73.21-7,.11-13.93.13-20.9h-.1v-.1c-7,0-13.93-.08-20.88.12-2.91.08-3.84-.83-3.75-3.74.2-7,.1-13.93.12-20.89h-.1Z"/><path class="cls-2" d="M442.82,173c-.08-.23-.16-.47-.25-.7s-.26-.66-.4-1c-2.52-2-5.54-1.47-8.38-1.49-17.42-.12-34.84,0-52.26-.07-9.44,0-11.1-1.71-11.23-11a84,84,0,0,0-.33-8.69c-.27-2.25-1.25-4.17-3.6-4.35-7.75-.56-15.56-1.73-23.2.92l-.1,0c-.17.15-.32.3-.46.45l-.16.17q-.18.21-.33.42c-1.24,1.73-1.36,3.85-1.45,6-.14,3.23.05,6.47-.17,9.69-.17,2.51-1,4.64-3.52,5.74-9.09,4-15.84-.36-15.91-10.16,0-2.21.07-4.43-.14-6.63a8.93,8.93,0,0,0-1.38-4.6,4,4,0,0,0-.38-.46,1.14,1.14,0,0,0-.11-.11,5.11,5.11,0,0,0-.55-.48l-.22-.15c-7.93-1.79-15.85-2.76-23.69.53l.15-.2c2.75-7.9,2.5-15.81.16-23.74,0-.08-.05-.16-.07-.25l-.36-.3-.13-.1q-.23-.18-.45-.33c-3.44-2.32-7.49-1.46-11.31-1.55-9.36-.21-10.57-1.41-10.77-10.72-.09-3.83.75-7.89-1.53-11.36l-.28-.39a1.49,1.49,0,0,0-.15-.2,4,4,0,0,0-.26-.32l-.31-.17c-4.52-2.37-9.47-1.14-14.23-1.54-5.39-.45-7.31-2.25-7.72-7.56-.23-3.06,0-6.14-.18-9.2-.31-6.42-1.24-7.45-7.55-7.68-6.13-.24-12.26-.17-18.39.05l-1.14,0h-.39c-13.81-.44-27.64-.18-41.45-.15-2.7,0-5.41.12-7.43,2.3l-.11.12.12-.12-.11.12c-3.5,3.62-2.16,8.23-2.34,12.48-.32,7.77-1.94,9.54-9.8,9.62-9.69.1-19.39,0-29.08.06-2.85,0-5.74,0-7.9,2.32l0,.07-.06.05a7.81,7.81,0,0,0-2.28,5.85c-.08,2.89,0,5.79-.14,8.68-.31,5.49-2,7.23-7.54,7.55-2.89.16-5.79,0-8.68.13A7.8,7.8,0,0,0,97,122.92l-.06.06-.06.06c-2,1.86-2.26,4.34-2.28,6.88q-.2,30.06,0,60.14c0,2.57.19,5.13,2.45,6.94l.17,24.6c3.06,3.59,7.27,2.29,11.05,2.43,9,.32,10.7,2,10.86,11,.23,13.64.23,13.67,14.12,13.67q86.88,0,173.76,0c2.4,0,4.79,0,7.18-.15,5.37-.4,6.36-1.41,6.76-6.93.25-3.4-.06-6.84.3-10.24.51-4.75,2.41-6.61,7.15-7.14a54.85,54.85,0,0,1,6.15-.15c24.95,0,49.89.06,74.84-.06,2.82,0,5.87.54,8.32-1.63a9.06,9.06,0,0,0,.49-.92,11.58,11.58,0,0,0,.54-1.33c1.09-3.28.7-6.78.77-10.2.2-8.65,1.86-10.32,10.64-10.47a78,78,0,0,0,9.17-.36c2-.27,4-1.11,4.13-3.17C444,188.28,445.39,180.54,442.82,173Zm-151.51-9.6c-.18,3.24-1.5,6-5,6-4.69.1-10,2.27-13.65-2.82a4.91,4.91,0,0,1-.61-1.93c-2.26-11,.42-14.4,11.55-14.46,1.19,0,2.39-.09,3.57,0a8.61,8.61,0,0,0,5.73-1.5,8.94,8.94,0,0,0-1.51,5.5C291.43,157.29,291.48,160.36,291.31,163.42Z"/><path class="cls-3" d="M442.56,246.12s0,.1,0,.14a2.76,2.76,0,0,1-.29.3,1.29,1.29,0,0,1-.17.16,5.37,5.37,0,0,1-.53.44c-1.61,1.15-3.58,1.3-5.55,1.43-2.9.18-5.8,0-8.7.19-5.36.4-7.26,2.28-7.67,7.62-.22,2.89-.09,5.79-.09,8.69,0,15.53,0,31.05,0,46.56,0,2.86.1,5.77-1.53,8.28-.09.14-.19.29-.3.43l-.08.11-.07.06q-.28.23-.57.42c-2.28,1.53-5,1.5-7.6,1.53-9.52.09-19.05,0-28.57.06-8.61.07-10.32,1.84-10.46,10.6,0,2.38,0,4.76-.15,7.14-.4,5.34-1.41,6.43-6.89,6.7-6.08.29-12.16.22-18.24,0-.59,0-1.17,0-1.76-.06h-.41c-21.19.46-42.38.17-63.57.19q-61.27.08-122.53,0c-3.67,0-7.64.79-10.61-2.45-6.48,0-13-.24-19.44.06-3.89.17-5.26-.79-5.16-5,.29-13.3,0-26.61.21-39.92.06-3.65-1-4.69-4.59-4.5-5.45.29-10.92-.06-16.38.13-2.86.1-3.81-.75-3.79-3.71.16-23.37.17-46.74.22-70.11,6.15,0,12.31.2,18.44-.13,4.85-.27,6.34,1.75,6.07,6.3s0,9.22-.07,13.83c-.07,3.28,1.39,4.68,4.62,4.55,2.56-.1,5.12,0,7.68,0H310.69c7.83,0,7.83,0,7.85-8,0-3.59.2-7.19-.05-10.76-.32-4.44,1.42-6,5.89-5.95,19.64.17,39.27.08,58.91.07q16.9,0,33.81-.08c.46-.5.92-1.18,1.52-1.3l.11,0c7.88-1.5,15.76-2.37,23.54.6l.3.91.36,1.21A42.67,42.67,0,0,1,442.56,246.12Z"/><path class="cls-4" d="M441.53,393.76v.1q0,12.24,0,24.49v.13l-.5.79c-.21.16-.42.3-.63.43-3.18,1.95-6.8,1.13-10.23,1.22-8.95.23-10.54,1.65-10.63,10.35-.14,14.5.69,14.25-14.36,14.29-4.24,0-8.47,0-12.7-.23h0l-1.78.09c-4.36.18-8.73,0-13.08.27-4.88.31-6.66,2.18-7.15,7-.77,7.55.67,10.88,5.33,12.29,6.6,2,6.76,2,6.8,9.18.16,25.28,0,50.57.07,75.86,0,13,.59,13.53,13.61,13.55,4.79,0,9.57-.07,14.35.06,2.25.06,4.48.2,6.38,1.48.15.1.29.21.44.33l.18.15.2.18a2.92,2.92,0,0,1,.24.37,11.35,11.35,0,0,1,1.42,6q.24,18.63,0,37.27a13.79,13.79,0,0,1-.7,4.47,9.31,9.31,0,0,1-.4,1,4.54,4.54,0,0,1-.3.53,3.77,3.77,0,0,1-1,1h0c-.43.12-.86.24-1.29.34a43.63,43.63,0,0,1-23.23-.33l-.23-.06-.22-.21-.17-.19a6.47,6.47,0,0,1-.43-.51c-1.79-2.39-1.48-5.34-1.59-8.16-.1-2.39.09-4.78-.15-7.16-.47-4.59-2.16-6.41-6.81-6.68a159.36,159.36,0,0,0-17.89,0c-4.8.27-6.57,2.2-6.93,7.12-.28,3.91,0,7.84-.31,11.76-.22,2.58-1.07,4.94-4,5.11-7.18.43-14.41,1.43-21.52-.47l-1.28-.37-.15-.1a3.37,3.37,0,0,1-1.1-1.09l-.07-.11a11.45,11.45,0,0,1-.58-1.42,14.81,14.81,0,0,1-.71-4.54c-.11-12.65-.21-25.29.05-37.93.13-6.38,1.26-7.35,7.57-7.69,3.24-.18,6.5.08,9.73-.23,4.77-.47,6.59-2.37,7.08-7.16a24.35,24.35,0,0,0,.1-2.56c0-24.61.07-49.21,0-73.81,0-7.69-2.23-9.7-9.86-9.67-7.34,0-9.4,2-9.61,9.43-.09,3.24,0,6.49-.26,9.73s-2,5.05-5.2,5.15q-21.26.69-42.52,0a7.42,7.42,0,0,1-3.81-1.31l-.44-.31a1.71,1.71,0,0,1-.11-.14c0-.06-.07-.11-.1-.16l-.27-.42c-2.66-4.45-1.49-9.45-1.54-14.2-.14-12.76,0-12.76,12.77-12.88h1.53c9.09-.17,13.5-7.74,9.25-15.87-1.7-3.26-4.79-3.57-7.92-3.61-9.39-.11-18.79,0-28.19-.05-2.22,0-4.44-.07-6.65-.23-3.26-.22-4.94-1.91-5.22-5.15-.3-3.41-.15-6.83-.28-10.25-.24-6.79-2.17-8.84-9-8.92-14.18-.16-28.36,0-42.54-.05-19.82,0-39.63,0-59.45,0-2.78,0-5.71.45-8.22-1.17a6.86,6.86,0,0,1-.64-.46l-.52-.8v-.1c0-7,.08-13.92-.12-20.88-.08-2.89.82-3.8,3.73-3.75,9.55.16,19.11-.08,28.65.13,3.39.08,4.9-.59,4.68-4.39-.34-5.61-.22-11.25,0-16.88.09-2.71-.82-3.55-3.49-3.46-5.45.17-10.93-.18-16.37.12-3.7.21-5.1-.69-4.9-4.7.33-6.63,0-13.29,0-19.94H343.26c.67.73,1.65,1.42,1.76,2.36a.09.09,0,0,1,0,.05c.64,7.37,1.85,14.79-.88,22,0,.12-.09.24-.14.37l-.23.2-.18.15c-.13.11-.27.21-.4.3-3,2.11-6.53,1.61-9.91,1.62q-59.73.1-119.45,0c-2.05,0-4.1,0-6.15,0-7.61.19-9.68,2.33-9.63,9.95,0,7.31,2.05,9.46,9.49,9.52,17.6.12,35.2,0,52.8.06,11,0,11.38.44,11.5,11.63.12,12,1.07,12.95,12.8,12.95h92.28c1.71,0,3.42.06,5.12-.08,5.38-.43,7.28-2.3,7.69-7.65.2-2.73.05-5.47.15-8.2.09-2.2.3-4.35,1.59-6.19l.3-.39.12-.15.05,0a4.91,4.91,0,0,1,.55-.38,12.22,12.22,0,0,1,6.64-1.47c11.85-.1,23.7-.12,35.55,0,1.95,0,4,0,5.67,1.13a6,6,0,0,1,.59.44Z"/><path class="cls-4" d="M333.22,660.56c-.06,3.52-1.49,5.58-5.19,6.41-5.54,1.25-6.78,3-6.9,9-.19,10.06.05,20.12-.12,30.17-.05,2.69.2,5.56-2.51,7.38H294a5.68,5.68,0,0,1-2.45-4.77c-.08-1.87-.11-3.73-.12-5.6-.06-10.85-3.76-13.68-14.59-11.3-3.15.7-4.57,2.68-4.81,5.71-.28,3.38-.08,6.78-.2,10.17-.08,2.28-.4,4.41-2.51,5.79q-38.68.09-77.36.16c-30.06,0-60.13-.07-90.19.11-3.89,0-5-1.05-4.76-4.85.33-5.28-.09-10.6.15-15.88.14-3.11-.76-4.13-4-4.05-9.39.21-18.79-.1-28.18.15-3.67.1-5.14-.65-4.92-4.69.36-6.64.09-13.32.08-20l0-.06.47-.76a5.6,5.6,0,0,1,.9-.68c1.63-1,3.53-1,5.38-1,12.3-.13,24.6-.21,36.89,0,6.87.13,7.76,1.2,8,8.29.12,3.07,0,6.14.21,9.21.35,4.22,2.61,6.52,6.85,6.87,1.87.15,3.75.13,5.63.13H231.61c9.35-.13,13.63-7,9.72-15.6a6.09,6.09,0,0,0-5.11-3.8c-5.23-.44-6.27-3.75-6.3-8.15-.12-16.91,0-33.81,0-50.72,0-14.71-.1-14.8-14.8-15.11-8.85-.18-9.6-.92-9.79-9.71-.05-2.39.07-4.79-.12-7.17-.43-5.31-2.35-7.29-7.72-7.59s-10.93-.1-16.4-.1c-20.66,0-41.33,0-62,0a65.83,65.83,0,0,1-7.16-.28c-2.75-.3-4.57-1.68-4.69-4.49-.3-7-1.19-14,.51-20.87.08-.34.17-.67.26-1a3.59,3.59,0,0,1,1.14-1.49l.28-.16c.25-.13.49-.24.74-.35,2.36-1,4.9-1,7.44-1,9.56-.05,19.12,0,28.68-.05,7.93-.07,9.52-1.8,9.83-9.64.16-4.11-.89-8.47,1.49-12.23.13-.2.28-.41.43-.62l.09-.11c.09-.11.17-.22.26-.32l.18-.06a42,42,0,0,1,24.82,0h0l.16.15.09.09c.15.16.3.33.43.5,1.3,1.68,1.47,3.75,1.59,5.83.18,2.9,0,5.8.2,8.69.4,5.33,2.31,7.24,7.67,7.62,3.57.24,7.16.09,10.74.09,14.83,0,29.67,0,44.5,0,2.85,0,5.75-.11,8.25,1.55l.43.31.12.09v0c.15.19.28.37.41.56,2,3,1.56,6.43,1.57,9.75q.09,47.89,0,95.79c0,2.05-.05,4.1.05,6.14.31,6.49,2.29,8.6,8.75,8.74q13.32.27,26.64,0c6.41-.15,8.49-2.28,8.63-8.82.23-10.58-.08-21.17.15-31.76.17-7.33,1.14-8.26,8.37-8.49q6.39-.21,12.8,0a9.32,9.32,0,0,1,4.14.93,5.44,5.44,0,0,1,1.75,1.49l0,0h0a6,6,0,0,1,1.39,1.57,7.59,7.59,0,0,1,1,3.8Q333.61,640.63,333.22,660.56Z"/><path class="cls-4" d="M615,565.81l-.19.23c-.15.17-.3.34-.46.49l-.14.14-.43.37c-2.34,1.8-5.33,1.48-8.15,1.53-13.75.27-13.85.33-13.85,14.2,0,15,0,30,0,44.92,0,7.94,1.71,9.42,9.63,9.71,3.76.14,7.74-.87,11.24,1.25a7.49,7.49,0,0,1,.63.41l.48.78V640c0,6.79-.13,13.58.14,20.35.14,3.39-1,4.31-4.29,4.26-13.49-.17-27,0-40.47-.15-3.48,0-4.83.74-4.61,4.46.32,5.45,0,10.93.13,16.39.08,2.71-.49,3.91-3.59,3.9q-45.58-.15-91.18,0c-2.88,0-3.86-.78-3.78-3.73.21-7,.11-13.93.13-20.9v-.12l.49-.77a6.82,6.82,0,0,1,.79-.57c2.31-1.42,5-1.06,7.54-1.07,17.21-.1,34.43,0,51.64-.06,9.12,0,10.65-1.61,10.75-10.77.16-13.66.16-13.66,13.83-13.83,9.15-.11,10.69-1.64,10.78-10.75.11-12-.21-24,.21-36,0-.09,0-.18,0-.27,0-.5,0-1,0-1.49-.37-13.41-.14-26.83-.12-40.24,0-2.46.11-4.93,1.55-7a6.25,6.25,0,0,1,.4-.54l.09-.11.1-.07c.12-.1.25-.19.38-.28,2-1.36,4.4-1.52,6.77-1.54,12.24-.12,24.47-.21,36.71,0,6.9.14,8.06,1.24,8.1,8.14C616.28,553.39,617.41,559.74,615,565.81Z"/><path class="cls-5" d="M392.47,615.36v0l-.42.66-.05.07a6.48,6.48,0,0,1-.94.67c-1.93,1.12-4.15,1-6.3,1-14.5-.18-14.66.51-14.5,14.8,0,2.56-.09,5.11-1.48,7.37-.08.14-.17.27-.26.4l0,0-.16.13a6.55,6.55,0,0,1-.53.39c-2.25,1.5-4.89,1.47-7.5,1.53-2.89.07-5.78-.09-8.66.16q-5.38.48-5.84,5.87c-.09,1-.11,2-.12,3.06-.11,9,1.24,10.25,10.17,10.52,4,.12,8.39-1.06,11.95,1.66l.28.23h0a7.39,7.39,0,0,1,.59.54l.18.18a14,14,0,0,1,1.37,6.93c.09,11.53.12,23.06,0,34.59,0,2.68.18,5.52-2.43,7.39H318.5c0-14.15.16-28.31,0-42.47-.07-4.71,1.24-7.23,6.32-6.58,4.78.61,6.19-1.69,6.13-6.25-.2-13.94-.09-27.9-.08-41.85v-1.13h0c5.94,0,11.89-.24,17.82.09,5,.28,7.26-1.35,6.83-6.63-.34-4.22,0-8.5-.09-12.75-.11-3.55,1.1-5.39,5-5.33q13.51.18,27.05,0c3.87-.06,5,1.81,4.95,5.34C392.3,602.45,392.43,608.91,392.47,615.36Z"/><path class="cls-4" d="M62.61,657.06c0,2.08,0,4.22-1.09,6a5.7,5.7,0,0,1-1.37,1.47l0,0c-6.83,0-13.66-.21-20.48.06-3.5.14-4.21-1.15-4.18-4.37.16-13.48-.05-27,.15-40.44.06-3.56-.85-4.78-4.51-4.57-5.45.31-10.92,0-16.38.13-2.76.09-3.88-.56-3.87-3.62q.2-33.29,0-66.56c0-2.9.83-3.84,3.74-3.75,7,.21,13.9.11,20.86.13h.13l.76.45c.18.24.34.48.49.72,2,3.28,1.09,7,1.18,10.55.23,8.89,1.44,10.11,10.39,10.31,3.38.08,6.92-.5,10.15.64a9,9,0,0,1,1.56.7,9.75,9.75,0,0,1,1.42,1c1.06,1.87,1.05,3.94,1.06,6Q62.79,614.46,62.61,657.06Z"/><path class="cls-4" d="M589.33,153c-.38,6.41-.14,12.86-.16,19.29v.14h0l-.6.83a5.86,5.86,0,0,1-.5.37c-2.06,1.39-4.49,1.21-6.83,1.21q-54.18.13-108.38,0c-2.49,0-5.16.33-7.29-1.57h0a9.36,9.36,0,0,1-.58-1c-1.23-2.45-1.28-5.16-1.29-7.86q-.09-28.68,0-57.34c0-2.49-.25-5.09,1.21-7.31q.18-.27.39-.54l.83-.59h.1c6.79,0,13.58.12,20.36-.13,3.32-.13,4.33.87,4.29,4.24-.19,13.47.08,26.94-.18,40.4-.08,4,1.15,4.75,4.87,4.73,29.49-.15,59,0,88.48-.19C588.35,147.58,589.59,148.71,589.33,153Z"/><path class="cls-4" d="M392.42,3.74c-.2,7-.1,13.93-.12,20.89v.09l-.58.83a5,5,0,0,1-.61.45c-2,1.33-4.44,1.14-6.73,1.15q-53.53.13-107.08,0c-2.31,0-4.72.18-6.77-1.17a7.1,7.1,0,0,1-.57-.43l-.58-.83v-.09c0-7,.08-13.93-.12-20.89C269.18.83,270.11,0,273,0q57.84.14,115.68,0C391.58,0,392.51.83,392.42,3.74Z"/><path class="cls-4" d="M535.42,270.83c-5.44-.26-10.91.08-16.36-.13-2.94-.12-3.78.9-3.71,3.77.16,6.94,0,13.89,0,20.84v.12c-.21.27-.41.55-.61.84l-.38.14c-7.46,2.81-15.12,1.6-22.68.71-2.9-.34-3.1-3.3-3.22-5.7-.34-6.8-.26-13.6,0-20.4a1.85,1.85,0,0,0,0-.23l-.06-1.91q-.3-10.44,0-20.88l.06-1.82V246c-.25-6.44-.29-12.89-.07-19.34a13.75,13.75,0,0,1,.6-3.57,12.25,12.25,0,0,1,.58-1.48c.12-.26.25-.52.4-.78,1.7-1.88,4-1.71,6.21-1.75,12.45-.2,24.91-.17,37.37,0,1.82,0,3.69.07,5.26,1.14a5.12,5.12,0,0,1,.54.41l.59.83v.14c0,14.95-.08,29.9.17,44.85C540.17,270.26,538.8,271,535.42,270.83Z"/><path class="cls-4" d="M683.44,640c-23.17-.15-46.35-.11-69.52-.13h-.14l.14.13-.14-.12a6.23,6.23,0,0,1-1.11-1.2,7.48,7.48,0,0,1-1.21-4.06c-.21-5.28-.18-10.56,0-15.84.16-4,2.31-5.74,6.18-5.85,2.9-.09,5.79-.09,8.69-.16,7.46-.21,9.24-2.07,9.58-9.46.19-4.21-.85-8.66,1.59-12.52q.13-.22.3-.45l.12-.17.14-.18.41-.15c8.11-2.9,16.34-1.92,24.57-.65a5.9,5.9,0,0,1,1.28,1.58,7.83,7.83,0,0,1,.63,1.6,19.94,19.94,0,0,1,.5,3.29c.18,1.86.11,3.74.12,5.61.07,10.6.93,11.38,11.77,11.56,3,0,6.25-.6,9,1.12a5.89,5.89,0,0,1,.78.56l.46.76v.11c0,6.79-.15,13.6.12,20.38C687.89,639.15,686.74,640,683.44,640Z"/><path class="cls-4" d="M110.12,540c-.23.5-.47,1-.75,1.49l0,0A5.79,5.79,0,0,1,107.7,543c-1.71,1-3.77,1-5.78,1-13.91,0-27.82.25-41.73-.13H60l-1.72.06c-5.31.17-10.63.17-15.95,0-2,0-3.91-.14-5.51-1.21a6,6,0,0,1-1.27-1.17,1.34,1.34,0,0,1-.11-.14l.13.14v-.14c0-15,0-29.92-.13-44.89,0-3.23.72-4.48,4.2-4.34,6.81.26,13.64.07,20.46.06l.06,0,.74.44a9,9,0,0,1,.53.78c2,3.3,1.08,7.06,1.18,10.61.26,8.55,1.73,10.15,10.29,10.21,9.74.07,19.48,0,29.22.07,2.54,0,5.14,0,7.27,1.56a4.82,4.82,0,0,1,.44.35.52.52,0,0,1,.11.1l.31.29.09.36C112.21,524.75,113.58,532.44,110.12,540Z"/><path class="cls-4" d="M97,197c-7,0-14-.18-20.94,0-2.93.07-3.73-.89-3.71-3.76.1-22.13.13-44.26,0-66.39,0-3.45,1.38-3.83,4.22-3.79,6.76.11,13.53-.06,20.29-.12H97V123Q97,160,97,197Z"/><path class="cls-4" d="M712.33,612.13c0,2.45-.8,3.25-3.23,3.2-7.12-.13-14.24-.07-21.37-.09h-.1l.1.11-.1-.09a5.56,5.56,0,0,1-1.24-1.34,10.22,10.22,0,0,1-1.17-5.42c-.12-5.32-.14-10.64,0-16,0-.59,0-1.18.07-1.77v-.12c-.38-13.75-.18-27.5-.14-41.25,0-2.3-.19-4.69,1.16-6.73a5.9,5.9,0,0,1,.44-.58l.82-.57h.12c7.12,0,14.24,0,21.36-.1,2.42,0,3.23.74,3.23,3.19Q712.21,578.37,712.33,612.13Z"/><path class="cls-4" d="M663,492.18v.12l-.56.83c-.2.17-.4.31-.6.45-2.05,1.33-4.44,1.14-6.74,1.15q-29,.15-57.89,0c-2.3,0-4.7.18-6.74-1.16a6,6,0,0,1-.59-.44l-.57-.83v-.12c0-7.12,0-14.24-.11-21.36,0-2.42.75-3.23,3.2-3.22q33.75.11,67.51,0c2.45,0,3.24.8,3.2,3.22C663,477.94,663,485.06,663,492.18Z"/><path class="cls-4" d="M441.65,28.85c-.26,6.79-.11,13.59-.13,20.38v.1l-.62.84a6.31,6.31,0,0,1-.53.41c-1.58,1.06-3.44,1.11-5.27,1.14-12.43.16-24.86.24-37.29,0-6.62-.15-7.62-1.27-7.88-7.88-.18-4.43-.15-8.86,0-13.28A8.64,8.64,0,0,1,391.11,26a5.74,5.74,0,0,1,1.19-1.29l.1-.08-.1.09h.1c15,0,30,.06,45-.13C440.69,24.55,441.79,25.47,441.65,28.85Z"/><path class="cls-4" d="M591.63,512.9c-.12,4.17-2.08,6.2-6.29,6.33q-10.22.33-20.43,0h-.16l-1.92.06c-5.86.17-11.72.22-17.58,0a14.21,14.21,0,0,1-3.63-.6,10.82,10.82,0,0,1-1.44-.53c-.25-.11-.49-.23-.74-.36a4.29,4.29,0,0,1-1.62-3.55c0-7-1.72-14.14,1.16-21l.14-.33.84-.6h.13l49.09,0h.13l-.13-.12.13.11a6,6,0,0,1,1.16,1.28,7.67,7.67,0,0,1,1.15,4C591.84,502.68,591.77,507.79,591.63,512.9Z"/><path class="cls-4" d="M687.75,496.46c-.19,15-.11,30-.13,44.94v.13l.12-.13-.11.13a6.52,6.52,0,0,1-1.27,1.15,6.67,6.67,0,0,1-3.51,1.12,141.9,141.9,0,0,1-16.88-.08c-3.26-.24-5-1.94-5.14-5.19-.53-13.82-.41-27.64-.08-41.46a6.17,6.17,0,0,1,1.09-3.49,6.67,6.67,0,0,1,1.16-1.29l.13-.11-.13.12h.13c6.79,0,13.58.14,20.36-.13C686.87,492,687.79,493.13,687.75,496.46Z"/><path class="cls-4" d="M221.22,71.51a21.34,21.34,0,0,1-1.14,2.37l-49.26,0h-.12v-.12c.06-6.78.32-13.56.1-20.32-.12-3.5,1.15-4.22,4.36-4.18,15,.17,29.93.11,44.9.13h.1l.82.57.1.34C223,57.41,224.1,64.53,221.22,71.51Z"/><path class="cls-4" d="M585,221.61c-15-.19-29.95-.11-44.93-.14h-.15l.15.14-.15-.12a7,7,0,0,1-1.13-1.26,6.64,6.64,0,0,1-1.12-3.5,139.32,139.32,0,0,1,.06-16.85c.21-2.91,1.54-5,4.64-5.09,14.46-.64,28.93-.67,43.4,0a4.55,4.55,0,0,1,2.35,1l.4.28c.2.28.41.56.63.83h0V197c0,6.78-.13,13.58.14,20.35C589.45,220.74,588.35,221.65,585,221.61Z"/><path class="cls-4" d="M466.26,53.49c-.18,15-.11,30-.13,45v.1l.1-.1a.39.39,0,0,0-.08.1,6.9,6.9,0,0,1-1.24,1.13,6.61,6.61,0,0,1-3.57,1.14,137.63,137.63,0,0,1-16.87-.09c-3.25-.24-5-1.95-5.13-5.19-.52-13.81-.39-27.62-.09-41.43a6.21,6.21,0,0,1,1.12-3.54,6.77,6.77,0,0,1,1.15-1.26l.1-.09-.1.1h.1c6.8,0,13.6.14,20.38-.13C465.39,49.07,466.3,50.16,466.26,53.49Z"/><path class="cls-4" d="M486.58,393.88c-15-.18-30-.11-44.94-.12h-.11l.11.1-.11-.09a6.73,6.73,0,0,1-1.17-1.29,6.66,6.66,0,0,1-1.11-3.5,141.38,141.38,0,0,1,.07-16.85c.22-3.24,1.91-5,5.16-5.16q21.19-.75,42.4,0a5.15,5.15,0,0,1,2.6.88c.22.14.44.29.65.45l.59.81,0,0v.1c0,6.79-.14,13.59.12,20.38C491,393,489.9,393.92,486.58,393.88Z"/><path class="cls-4" d="M271.57,46.38c-.24,3.26-1.95,5-5.19,5.14-13.81.52-27.62.39-41.43.08a6.23,6.23,0,0,1-3.87-1.35,7.25,7.25,0,0,1-.93-.91l-.09-.11.1.11v-.11c0-6.79.13-13.59-.13-20.37-.14-3.39.95-4.31,4.28-4.27,15,.19,30,.11,45,.13h.1a.57.57,0,0,1-.08-.08.27.27,0,0,0,.08.07A6.21,6.21,0,0,1,270.53,26a6.57,6.57,0,0,1,1.12,3.53A139.63,139.63,0,0,1,271.57,46.38Z"/><path class="cls-4" d="M388.75,713.79c-7-.25-14-.17-21-.23l-.06-49,.08-.11c.05-.09.1-.18.16-.27s.09-.14.13-.22a1.64,1.64,0,0,0,.14-.22,35.88,35.88,0,0,1,23.16-.19l.36.12.52.8h0v.13c0,15.13,0,30.26.13,45.39C392.44,712.78,391.77,713.9,388.75,713.79Z"/><path class="cls-4" d="M87.13,487.43c-.28,5.95-1.32,6.92-7.38,7.23-4.57.23-9.14.17-13.71,0a8.48,8.48,0,0,1-4.59-1.19,5.5,5.5,0,0,1-1.3-1.22l0,0c0-15,.11-30-.06-45,0-3.36.95-4.38,4.29-4.25,6.77.25,13.57.11,20.36.13h.09l.83.55c.15.2.3.4.43.61,1.59,2.5,1.11,5.4,1.18,8.17.14,5,0,10.09-.14,15.14,0,.19,0,.38,0,.57,0,.44,0,.88,0,1.31C87.37,475.44,87.42,481.44,87.13,487.43Z"/><path class="cls-4" d="M490.87,422.61c-.27,6.77-.12,13.56-.14,20.35v.13l-.63.84c-1.68,1.45-3.76,1.51-5.8,1.54-12.43.16-24.87.25-37.3,0-6.59-.15-7.59-1.28-7.86-7.91-.17-4.43-.15-8.86,0-13.29a8.5,8.5,0,0,1,1.21-4.54,5.68,5.68,0,0,1,1.13-1.24l.14-.11-.14.13h.14c15,0,30,0,44.93-.13C489.91,418.3,491,419.22,490.87,422.61Z"/><path class="cls-4" d="M136.22,440.14c-.24,3.25-2,5-5.2,5.13-13.8.52-27.61.39-41.42.09a6.25,6.25,0,0,1-3.54-1.11,6.58,6.58,0,0,1-1.27-1.16l-.08-.1.09.1V443c0-6.8.14-13.6-.12-20.38-.14-3.38.95-4.31,4.28-4.26,15,.18,30,.11,45,.13h.1l-.1-.1.1.08a6.93,6.93,0,0,1,1.16,1.28,6.68,6.68,0,0,1,1.11,3.53A139.65,139.65,0,0,1,136.22,440.14Z"/><path class="cls-4" d="M165.54,98.54c-14.65-.16-29.29-.09-43.94-.11h-.12a.37.37,0,0,1,0-.11c.06-6.77.31-13.54.09-20.29-.11-3.44,1.06-4.24,4.32-4.21,14.93.1,29.87,0,44.8-.11h.12v.12c0,6.44-.11,12.9.11,19.34C171.06,97.17,169.51,98.59,165.54,98.54Z"/><path class="cls-4" d="M540.06,341.44c0,2.47-.83,3.23-3.24,3.19-7.11-.14-14.23-.09-21.34-.11h-.12l-.84-.58a6.24,6.24,0,0,1-.51-.67,9.57,9.57,0,0,1-1-5.14q-.23-17.94,0-35.88c0-2.09.14-4.18,1.41-5.84a5.84,5.84,0,0,1,1-1l.13-.1-.13.12h.13c7.11,0,14.22,0,21.34-.1,2.39,0,3.26.7,3.24,3.18Q539.93,320,540.06,341.44Z"/><path class="cls-5" d="M269.28,713.56c0-6.45.14-12.92,0-19.37-.07-3.74,1.54-5.2,5.2-5.09q7.13.21,14.27,0c3.66-.11,5.27,1.35,5.19,5.09-.12,6.45,0,12.92,0,19.37Z"/><path class="cls-4" d="M466.16,664.55l.09-.1h0Z"/><path class="cls-4" d="M468.18,661.69a2.81,2.81,0,0,1-.63,1.4,16.13,16.13,0,0,1-1.28,1.34s0,0,0,0h-.09c-7,0-13.93-.08-20.88.12-2.91.08-3.84-.83-3.75-3.74.2-7,.1-13.93.12-20.89v-.1l.63-.84.3-.12c7.49-2.84,15.16-1.47,22.77-.78a3.45,3.45,0,0,1,2.85,3.26A83.81,83.81,0,0,1,468.18,661.69Z"/><path class="cls-4" d="M490.87,443l-.07.13h-.07Z"/><path class="cls-4" d="M515.47,446.71c-.21,7-.11,13.91-.13,20.86v.13c-.2.28-.39.56-.59.83l-.3.09c-7.91,2.31-15.78,2.79-23.58-.3l-.4-.16-.18-.08-.17-.07c-.05-.15-.09-.29-.13-.44-2.42-8.24-3.43-16.44.81-24.48h.07c6.95,0,13.9.08,20.85-.12C514.62,442.89,515.56,443.79,515.47,446.71Z"/><path class="cls-4" d="M413.28,664.57c-6.94-.2-13.9-.11-20.85-.12h-.15a10.89,10.89,0,0,1-.88-.92,4.56,4.56,0,0,1-1.21-2.81c-.27-6.48-1.12-13,.54-19.39.08-.3.16-.6.25-.9a3.33,3.33,0,0,1,.33-.58,4,4,0,0,1,.31-.41,3.79,3.79,0,0,1,.6-.53l.09,0c7.91-2.15,15.82-2.57,23.71,0l.32.11.56.82h0V640c0,6.95-.08,13.91.13,20.86C417.12,663.75,416.19,664.65,413.28,664.57Z"/><path class="cls-4" d="M116.84,123.13c-6.61-.15-13.23-.07-19.85-.09h-.12v-.11c.06-6.92.26-13.85.12-20.76-.06-2.9.84-3.79,3.73-3.74,6.92.14,13.84-.05,20.77-.11h.11v.12c0,6.62-.06,13.24.09,19.86C121.76,121.79,120.35,123.21,116.84,123.13Z"/><path class="cls-4" d="M540.09,492.18l-.12.14a6.15,6.15,0,0,1-1,.93,6.59,6.59,0,0,1-3.77,1.33,156.63,156.63,0,0,1-16.36,0c-3.71-.18-5.57-2-5.76-5.75a156.63,156.63,0,0,1,0-16.36,6.55,6.55,0,0,1,1.37-3.83,6.48,6.48,0,0,1,.89-.93l.14-.12-.14.13h.14c6.95,0,13.91.08,20.85-.12,2.92-.09,3.83.83,3.75,3.75-.21,6.94-.11,13.9-.12,20.85v.14Z"/><path class="cls-4" d="M490.75,369.15h0l.1.1Z"/><path class="cls-4" d="M515.47,365.5c.08,2.91-.82,3.84-3.74,3.75-7-.19-13.91-.09-20.87-.1h-.1l0,0c-.41-.42-.87-.81-1.24-1.26a2.55,2.55,0,0,1-.63-1.44c-.54-7.29-1.71-14.63.88-21.76.1-.25.19-.51.29-.76l.39-.21c6-3.08,12.42-1.12,18.64-1.5a7.9,7.9,0,0,1,5,1.09,5.93,5.93,0,0,1,1.37,1.25.64.64,0,0,0,.1.13l-.12-.13v.13C515.37,351.6,515.27,358.56,515.47,365.5Z"/><path class="cls-4" d="M613.89,193.82c.06,2.51-.91,3.19-3.27,3.15-7.1-.14-14.21-.09-21.31-.11h-.14l.14.14-.14-.13a7.2,7.2,0,0,1-1-1.12,5.69,5.69,0,0,1-1.16-3.06,111.33,111.33,0,0,1,0-16.13,5.63,5.63,0,0,1,1.09-3,7.28,7.28,0,0,1,1.1-1.2l.14-.14-.14.14h.14c7.1,0,14.21,0,21.31-.1,2.36,0,3.33.63,3.27,3.14Q613.68,184.63,613.89,193.82Z"/><path class="cls-4" d="M443.92,635.06a6.61,6.61,0,0,1-1.34,3.82,5.65,5.65,0,0,1-.93,1l-.1.09.1-.1H416.9l.14.13-.14-.13a7,7,0,0,1-.88-.93,5.7,5.7,0,0,1-1.31-3.24,112.64,112.64,0,0,1,0-16.12,5.61,5.61,0,0,1,1-2.89,8,8,0,0,1,1.21-1.34l0,0,0,0a6.39,6.39,0,0,1,1.71-1.43,6.88,6.88,0,0,1,3.1-.85,153.36,153.36,0,0,1,16.33,0c3.71.18,5.56,2,5.75,5.74A159,159,0,0,1,443.92,635.06Z"/><path class="cls-6" d="M466.3,172.2c-.16.29-.25.7-.5.87l-.23.15c-4.18,2.54-17.46,2.29-22.75-.2a5.92,5.92,0,0,1-1.18-.69c-22.5,0-45-.12-67.49.08-4.87,0-6.85-1.49-6.46-6.44.32-3.89-.22-7.86.13-11.75.5-5.32-1.79-6.88-6.81-6.59-5.93.34-11.89.07-17.83.06h-.06l-.67-.37-.08,0a9.13,9.13,0,0,1-.54-.78c-2-3.27-1.09-7-1.17-10.55-.22-9.12-1.24-10.21-10.38-10.33-3.4,0-6.87.36-10.18-.69a10.71,10.71,0,0,1-1.39-.53l-.2-.11a3.07,3.07,0,0,1-1.08-1,1,1,0,0,1-.07-.15,7.83,7.83,0,0,1-.34-.79c-1.64-4.21-.84-8.69-1-13-.28-6.45-1.8-8-8.23-8.26-4.11-.17-8.3.51-12.32-.73a12.09,12.09,0,0,1-1.23-.44,3.18,3.18,0,0,1-.32-.16,3.36,3.36,0,0,1-1-.85c-.06-.11-.11-.22-.16-.33a10.39,10.39,0,0,1-.63-1.56c-1.23-3.79-.53-7.8-.73-11.71-.16-3.23.33-7.14-3.67-8.13-4.58-1.15-9.57-1.9-13.87.95-2.36,1.57-1.79,4.58-2,7.12-.35,4,1,8.33-1.23,12.12-.16.26-.33.53-.52.79l-.07,0-.67.34h0c-6.45,0-12.89-.14-19.33.07-4,.13-5.46-1.58-5.29-5.46.19-4.41-.16-8.85.09-13.26s-1.26-6.2-5.81-6c-6.28.27-12.57.07-18.87.06V71.55q0-11.11,0-22.21v-.11h.1c14.66,0,29.33-.09,44,.12,4,.06,5.43-1.2,5.25-5.25-.29-6.44-.1-12.92-.11-19.38v-.09H392.4v.09c0,6.64.13,13.27-.09,19.9-.12,3.57,1.15,4.75,4.71,4.71,14.83-.16,29.67-.08,44.5-.1h.1v.1c0,14.67.1,29.33-.11,44-.06,4,1.2,5.42,5.25,5.24,6.44-.28,12.91-.1,19.37-.1h.1v.1Q466.28,135.37,466.3,172.2Z"/><path class="cls-7" d="M589.31,172.25V197h-.14c-15,0-30,.05-44.94-.14-3.33,0-4.41.88-4.28,4.26.27,6.78.12,13.57.14,20.35v.14h-.15l-49,0a6.23,6.23,0,0,1-1.94,1.48,11.64,11.64,0,0,1-5.11.89q-17.69.18-35.37,0a10.73,10.73,0,0,1-5.58-1.15,6.57,6.57,0,0,1-1.47-1.21l-23.27-.18H417.1c0-6.81.09-13.61-.19-20.41-.14-3.55,1.36-4.29,4.5-4.17,5.09.19,10.21-.16,15.3.12,3.71.21,5.14-.82,5-4.78-.3-6.62-.05-13.26,0-19.89h.93L465,172.2h1.32l122.87.05Z"/><path class="cls-4" d="M182.92,221.53c-10.42,0-20.84-.11-31.25.06-3.92.06-5.64-1.25-5.45-5.32.23-4.77.16-9.56,0-14.34-.09-3.34,1-5,4.66-5q32.28.12,64.56,0c3.21,0,4.71,1.19,4.64,4.51-.12,5.12-.14,10.25,0,15.37.11,3.58-1.48,4.8-4.92,4.77C204.44,221.46,193.68,221.53,182.92,221.53Z"/><path class="cls-6" d="M318.56,147.69H293.9l.06.06q0-12.33,0-24.66l.56-.84c8.11-2.26,16.19-3.49,24.06.89l-.06-.06c.55.63,1.47,1.1,1.59,1.9,1.18,7.43,2.22,14.86-.7,22.16Z"/><path class="cls-6" d="M294,123.08c-6.61,0-13.22-.08-19.82,0-3.47.07-4.9-1.36-4.83-4.83.12-6.6,0-13.21,0-19.82l0,0a6.1,6.1,0,0,1,4.29-2.3,116.61,116.61,0,0,1,16.08,0,6.14,6.14,0,0,1,4.3,2.3l-.06-.06a6.14,6.14,0,0,1,2.3,4.3,116.61,116.61,0,0,1,0,16.08,6.1,6.1,0,0,1-2.3,4.29Z"/><path class="cls-6" d="M343.12,147.69c0,6.46-.09,12.92.06,19.38.08,3.56-1.07,5.42-4.94,5.28-4.93-.17-9.87-.17-14.79,0-3.88.14-5-1.72-4.95-5.28.15-6.46.06-12.92.06-19.38l-.05.05a6.1,6.1,0,0,1,4.29-2.3,116.61,116.61,0,0,1,16.08,0,6.14,6.14,0,0,1,4.3,2.3Z"/><path class="cls-6" d="M293.9,147.68c0,6.47-.1,12.95.06,19.42.08,3.61-1.14,5.39-5,5.25-5.11-.17-10.22-.1-15.33,0-3,0-4.35-1.31-4.31-4.31.06-5.28.09-10.56,0-15.84-.07-3.35,1.56-4.5,4.71-4.46,6.64.09,13.28,0,19.93,0Z"/><path class="cls-8" d="M490.93,344.65q0,12.25-.07,24.5v.1h-.11c-14.94,0-29.89.05-44.84-.11-3.27,0-4.51.89-4.39,4.29.24,6.77.1,13.55.12,20.33v.1h-.11l-49-.17h-.06l-.67-.32-.13-.07a8,8,0,0,1-.57-.77c-2-3.06-1.13-6.63-1.21-10-.22-9.49-1.41-10.76-11-10.8-9.33,0-18.65.07-28-.06-2.18,0-4.48.19-6.38-1.1a5.53,5.53,0,0,1-.81-.67l-.06-.13c-.11-.22-.22-.44-.32-.66l0,0V344.63c6.81,0,13.62-.16,20.42,0,3.07.07,4.25-.9,4.13-4.06-.21-5.44.12-10.9-.11-16.34-.15-3.39,1.09-4.35,4.39-4.32,14.94.16,29.89.09,44.84.11H417l.63.33.1.05a4.87,4.87,0,0,1,.71.89c1,1.6.93,3.5,1,5.35.14,3.24-.09,6.49.19,9.74.29,3.4,2.17,5.26,5.58,5.54a47.68,47.68,0,0,0,7.17.05c4.72-.32,6.28-1.9,6.58-6.73.2-3.24,0-6.49.13-9.74a13.43,13.43,0,0,1,.67-4,11.34,11.34,0,0,1,.66-1.57l.18-.32a3.73,3.73,0,0,1,.92-.77,3.49,3.49,0,0,1,.58-.29l.89-.17c7.29-1.36,14.57-1.67,21.81.06.44.1.87.22,1.31.33l.33.1c1.92,1.08,2,3,2.12,4.85.21,2.7.12,5.4.15,8.11.11,8.61,1.57,10.1,10,10.22,2.54,0,5.08-.08,7.6.17,1.52.15,3.11.22,4.08,1.46A3.86,3.86,0,0,1,490.93,344.65Z"/><path class="cls-8" d="M417,320c0-23,0-46-.12-69,0-3.68.82-5.18,4.79-5,6.63.3,13.28.07,19.92.06l.84.58c1.34,1.51,1.53,3.39,1.55,5.26q.28,31.08,0,62.17c0,2.28-.51,4.39-2.45,5.89l.09-.1a6.16,6.16,0,0,1-4.3,2.32,113.83,113.83,0,0,1-16.1,0,6.12,6.12,0,0,1-4.3-2.32Z"/><path class="cls-9" d="M441.46,221.65h49.47l-.3,24.54c-1.54,2.26-3.94,2.35-6.31,2.42q-9.09.24-18.17-.1c-5.91.24-11.83.25-17.75.11-2.56-.06-5.11-.2-6.87-2.49h.08Z"/><path class="cls-2" d="M330.87,615.32c-6.15,0-12.32.26-18.44-.11-5.14-.31-6.38,1.89-6.28,6.61.25,12.29-.07,24.59.16,36.88.08,4.52-1.52,6-6,5.89-12.46-.22-24.93-.27-37.4,0-4.91.12-6-1.87-6-6.34.13-38.94.09-77.88.1-116.82.16-.26.31-.52.46-.78,3.49-2.64,7.56-1.58,11.4-1.69,8.62-.25,10.12-1.62,10.17-10.25.06-9.56-.05-19.12.06-28.68,0-2.53-.23-5.18,1.64-7.32l.76-.49c14.51,0,29-.13,43.51.09,4.52.07,6.14-1.53,5.86-6s.1-8.87-.1-13.3c-.18-3.89,1.19-5.67,5.27-5.47a130,130,0,0,0,13.82,0c4.26-.23,5.68,1.47,5.62,5.66-.18,13.48-.06,27-.06,40.44,0,15.53-.13,31.06.08,46.59.06,4.5-1.51,6.17-5.95,5.86-3.91-.27-7.85-.07-11.77,0-6.89,0-6.95.06-7,6.75Q330.82,594.07,330.87,615.32Z"/><path class="cls-6" d="M306.32,448.59a112.16,112.16,0,0,0,0,14.32c.15,3.48-1,4.94-4.63,4.78-5.28-.23-10.58.07-15.87-.09-3.07-.08-4.25,1-4.19,4.16.12,6.8,0,13.6-.06,20.41v.06l.09-.06-.06.06-.5.53a7.75,7.75,0,0,1-.94.87,3.26,3.26,0,0,1-1.8.7c-7,.4-14.09,1.43-21-.88l-.23-.16a5.48,5.48,0,0,1-.58-.48.3.3,0,0,0-.08-.08,4.33,4.33,0,0,1-.4-.47,8.77,8.77,0,0,1-1.4-4.59c-.22-2.21-.14-4.43-.15-6.65-.07-9.82-6.9-14.18-15.94-10.17-2.54,1.12-3.33,3.26-3.5,5.78-.21,3.23,0,6.48-.17,9.71-.1,2.09-.21,4.19-1.46,5.88-.11.14-.22.28-.35.42l-.13.14a4.49,4.49,0,0,1-.55.51l0,0a46.26,46.26,0,0,1-24.27.14l-.27-.19a5.06,5.06,0,0,1-.54-.47l-.16-.16c-.12-.14-.24-.27-.34-.41a9.31,9.31,0,0,1-1.41-5c-.18-2.37-.05-4.76-.13-7.13-.11-3.35.64-7.4-3.27-8.93a17.63,17.63,0,0,0-13.42.19c-2.28,1-2.63,3.4-2.75,5.66-.17,3.06,0,6.12-.14,9.18-.08,2.15-.2,4.29-1.44,6.07a4,4,0,0,1-.37.47.69.69,0,0,1-.11.13c-.12.13-.24.26-.38.39l-.2.06c-7.88,2.49-15.83,1.89-23.78.46a4,4,0,0,1-.82-.36,3.73,3.73,0,0,1-.74-.53h0c-.12-.19-.24-.39-.34-.58a10.55,10.55,0,0,1-.67-1.51c-1.28-3.63-.55-7.54-.76-11.31-.18-3.2.42-7.08-3.34-8.36-4.51-1.53-9.4-1.84-13.83.53-2.15,1.15-2.24,3.66-2.32,5.9-.13,3.4.1,6.8-.2,10.19a16.3,16.3,0,0,1-.47,3,7.1,7.1,0,0,1-.57,1.47,5.8,5.8,0,0,1-1.23,1.61,58.09,58.09,0,0,1-23.31.09l-1.41-.34h0c-2.45-1.23-2.25-3.61-2.4-5.77-.23-3.41,0-6.82-.2-10.23-.36-5.15-2.14-6.89-7.35-7.23-2.89-.19-5.79,0-8.69-.15a10.1,10.1,0,0,1-3.56-.65,5,5,0,0,1-2.25-1.9q-.09-12.23-.17-24.45V443h.09c14.67,0,29.33-.1,44,.11,4,.06,5.43-1.2,5.25-5.24-.29-6.45-.1-12.92-.11-19.38v-.1h.1c38.87,0,77.74.13,116.61-.09,5.32,0,6.95,1.58,6.45,6.65-.39,3.89.29,7.88-.17,11.76-.64,5.45,1.69,6.56,6.66,6.43,12.28-.32,24.57.06,36.85-.19C304.75,442.85,306.71,443.87,306.32,448.59Z"/><path class="cls-10" d="M559.56,640c-5.12-.23-10.25.06-15.37-.09-3.07-.09-4.3,1-4.2,4.16.16,5.11-.2,10.25.1,15.36.25,4.12-1.34,5.21-5.29,5.19-22.85-.13-45.69,0-68.54,0h-.1v-.1c0-6.8-.09-13.6.07-20.4.07-3.1-1.09-4.25-4.18-4.18-6.8.15-13.6.06-20.4.07h-.1v-.1c0-6.8-.09-13.6.07-20.4.07-3.1-1.09-4.25-4.18-4.18-6.47.15-12.95.07-19.42.07h-1.08v-.09q0-24.56.07-49.13V566c.12-.21.24-.42.37-.63,0,0,.05-.09.07-.14a6.79,6.79,0,0,1,.85-.62c2.43-1.5,5.26-1,7.94-1.08,12.45-.18,12.64-.44,12.88-13.07.06-3.27-1-6.91,1.67-9.72l.38-.37.54-.17c7.5-2.38,15.17-1.28,22.78-.82,2.91.18,3.79,2.51,4,5.1.33,3.75.05,7.52.32,11.26.39,5.37,2.3,7.28,7.64,7.66,3.58.26,7.17.1,10.75.25,4,.17,5.86,2.14,6,6.08.08,2.73.11,5.46.16,8.19.16,8.35,1.9,10.12,10.41,10.16,17.42.08,34.83,0,52.23.08,2.12,0,4.36-.23,6.28.62a5.88,5.88,0,0,1,2.23,1.76c0,14.86,0,29.71.2,44.57C564.77,639.15,563.18,640.12,559.56,640Z"/><path class="cls-5" d="M392.47,393.69c0,6.49-.18,13-.08,19.46.06,3.61-1.21,5.3-5,5.29q-56.6-.09-113.19,0c-3.5,0-4.95-1.48-4.87-4.93.11-4.6-.18-9.23.07-13.82s-1.6-6-6-5.94c-20.14.15-40.29.08-60.43.06-7.37,0-7.43-.08-7.45-7.43,0-4.26.06-8.53,0-12.8,0-3,1.36-4.41,4.35-4.35,1.7,0,3.41,0,5.12,0l138.28-.11-.06,0a7.88,7.88,0,0,1,2.4,6c.09,2.72,0,5.44.14,8.15.31,5.94,2.16,7.89,8.19,8,10.19.24,20.39,0,30.58.12,2.9,0,5.84,0,8,2.44Z"/><path class="cls-7" d="M490.87,443v.13q-.08,12.24-.14,24.48v.13l-.26.46c-.06.09-.11.19-.16.28a7.9,7.9,0,0,1-.79.54c-3.27,2-7,1.06-10.54,1.14-9.08.22-10.15,1.24-10.27,10.41,0,3.39.36,6.84-.68,10.13a11.36,11.36,0,0,1-.55,1.43l-.12.22a3.2,3.2,0,0,1-1,1.06l-.09,0a11.82,11.82,0,0,1-1.64.64c-3.82,1.21-7.84.59-11.77.73-7,.23-8.49,1.72-8.74,8.79-.14,3.92.54,7.94-.76,11.74a11.74,11.74,0,0,1-.68,1.61.83.83,0,0,1-.07.13,3.65,3.65,0,0,1-.94.9c-.17.1-.34.19-.53.28l-.33.06c-7.52,1.49-15,2-22.45.06L417,518l-.61-.19c-2.27-2.16-1.81-5-1.85-7.69-.17-9.89,0-19.78-.1-29.67-.08-8.3-1.93-10.07-10.37-10.23-14.21-.27-14.34-.27-14.13-14.55,0-3.38-1-7.09.72-10.22a7.57,7.57,0,0,1,1.84-2.25c6.79-.05,13.59-.28,20.38-.05,3.43.11,4.35-1.06,4.19-4.32-.25-5.09.26-10.22-.16-15.28-.37-4.45,1.32-5.4,5.41-5.19,6.39.33,12.81.05,19.22,0h.14v.13c0,7,.08,13.92-.13,20.87-.08,2.93.87,3.76,3.76,3.73,15.15-.14,30.3-.1,45.45-.12Z"/><path class="cls-10" d="M392.47,443.16c0,6.63.08,13.28-.16,19.91-.13,3.66,1.39,4.77,4.82,4.61,4.25-.2,8.51-.05,12.76,0,7.06,0,7.08,0,7.08,6.84q0,21.19,0,42.38c2.17,1.63,2.42,4,2.45,6.44q.24,18.19,0,36.38c0,2.43-.32,4.8-2.48,6.43L417,566c-10.41,0-20.83-.18-31.24.13-4.46.13-5.84-1.19-5.81-5.74.2-28.85,0-57.71.21-86.55,0-4.88-1.24-7.07-6.25-6.24s-6.68-1.29-6.25-6.23a97.92,97.92,0,0,0,0-13.81c-.19-3.69,1.34-4.74,4.8-4.62C379.15,443.2,385.81,443.11,392.47,443.16Z"/><path class="cls-7" d="M417,639.84V640H392.3l-.2-.14c-.17-.13-.33-.27-.48-.41a5.58,5.58,0,0,1-1.53-3.74,108.29,108.29,0,0,1,0-16.11,5.47,5.47,0,0,1,.95-2.78,5.94,5.94,0,0,1,.82-.93,5.6,5.6,0,0,1,.59-.48l0,0,0,0h0l24.43-.16H417v1.08Q417,628.08,417,639.84Z"/><path class="cls-2" d="M60,541.55l49.33-.07c0,6,.3,12-.07,17.94-.32,5.14,1.43,6.8,6.66,6.76,27.84-.22,55.69-.11,83.54-.1,8.32,0,8.32,0,8.32,8.49,0,3.76.13,7.52,0,11.27-.13,3.49,1.29,5,4.82,4.87,4.1-.15,8.2,0,12.3,0,7.5,0,7.51,0,7.51,7.76,0,19.82.16,39.64-.1,59.45-.07,5.18,1.55,7.32,6.72,6.63,4.09-.54,6,1.11,5.74,5.47a132.91,132.91,0,0,0,0,13.83c.2,4-1.47,5.39-5.42,5.34-12.29-.15-24.6,0-36.9,0-28.87,0-57.74-.09-86.62.09-4.79,0-6.92-1.29-6.53-6.35.35-4.41-.08-8.88.11-13.32.16-3.8-1.46-5.1-5.16-5.07-14.69.11-29.38,0-44.08,0l0-98.49a5.63,5.63,0,0,1-2.21-3.84,104.75,104.75,0,0,1,0-16.71A6.18,6.18,0,0,1,60,541.55Z"/><path class="cls-2" d="M207.77,492.27h24.66l.77.44c2.65,3.44,1.6,7.48,1.7,11.28.22,8.94,1.42,10.15,10.35,10.36,4.47.11,9.2-.93,13.15,2.32,2,7.11,1.11,14.32.7,21.51-.09,1.46-1.18,2.36-2.12,3.32l.06-.06c-22.55,0-45.1-.08-67.66.1-4.55,0-6.52-1.24-6.28-6.08.3-6.13,0-12.3-.07-18.44.12-.27.23-.53.35-.79,1.69-1.78,3.93-1.77,6.13-1.85,2.7-.11,5.41,0,8.11-.1,5.76-.26,7.37-1.92,7.6-7.8.11-2.7,0-5.41.11-8.11.09-2,.1-4.09,1.68-5.68Z"/><path class="cls-7" d="M109.37,541.45q.06-12.24.1-24.46l.48-.88c1.74-1.75,4-1.68,6.2-1.7q17.81-.24,35.62,0c2.18,0,4.47-.06,6.21,1.7.16.29.32.58.47.87,0,6.81-.11,13.62.2,20.41.16,3.53-1.21,4.17-4.37,4.14C139.31,541.38,124.34,541.45,109.37,541.45Z"/><path class="cls-2" d="M158.57,492.25l24.64,0,.83.55c2.36,8,3.26,16-.69,23.87L183,517l-24.58,0,.07,0c-1-1.15-2-2.26-2.14-3.9a96.09,96.09,0,0,1,0-17.13A4.66,4.66,0,0,1,158.57,492.25Z"/><path class="cls-7" d="M564.63,541.43v.12q-.06,24.51-.13,49h-2.2c-22.3,0-44.59,0-66.89.16-3.64,0-4.8-1.33-4.65-4.8.2-4.77-.18-9.57.11-14.33.25-4.14-1.05-5.88-5.42-5.61-5.1.32-10.24,0-15.35.09-2.84.06-4-1.1-3.92-3.93.1-5.12-.23-10.25.09-15.35.27-4.38-1.5-5.58-5.62-5.42-6.3.25-12.62,0-18.93,0-.3-.16-.7-.24-.88-.49a.41.41,0,0,1,0-.09c-2.62-3.93-2.42-16.94,0-22.49a7.59,7.59,0,0,1,.75-1.37l.1-.13-.14.13.12-.13a6.18,6.18,0,0,1,1.72-1.48c2.27-1.31,5-.92,7.6-1,12.18-.19,12.55-.56,12.74-12.73,0-2.57-.35-5.3.93-7.57a6.26,6.26,0,0,1,1.5-1.76l.07-.05.05-.06a6.13,6.13,0,0,1,1.79-1.52c2.26-1.27,5-.88,7.53-.92,12.18-.19,12.55-.56,12.74-12.73,0-2.75-.41-5.68,1.22-8a6.35,6.35,0,0,1,.77-.9,4.21,4.21,0,0,1,.44-.39.81.81,0,0,1,.14-.12l-.14.13h.14l24.47-.13h.14v.13c0,6.95.08,13.91-.13,20.86-.08,2.91.84,3.83,3.75,3.74,6.95-.2,13.9-.1,20.86-.12h.13v.14q.06,12.27.1,24.53a6.42,6.42,0,0,1,1.43,1.82,8.61,8.61,0,0,1,.85,3.67c.07,2,.07,4.09.09,6.14.07,9.16,1.27,10.27,10.28,10.49,3.53.09,7.27-.81,10.55,1.15a7.22,7.22,0,0,1,.81.55l.09.15Z"/><path class="cls-11" d="M687.74,541.4v.13q-.11,24.56-.23,49.12a6.16,6.16,0,0,1-2.24,1.9,3.66,3.66,0,0,1-1.07.27,87.71,87.71,0,0,1-17.82,0,3.41,3.41,0,0,1-1.4-.46,14.73,14.73,0,0,1-2-1.59l-24.44-.11h0l-.11-.06-.53-.27-.12-.06a8.24,8.24,0,0,1-.58-.82c-2-3.25-1.07-7-1.16-10.5-.22-9.12-1.24-10.15-10.36-10.37-3.52-.08-7.25.85-10.5-1.15a8.88,8.88,0,0,1-.83-.58l-.07-.16-.26-.49-.06-.11v0c0-6.79-.2-13.6,0-20.38.12-3.43-1.09-4.28-4.35-4.25-15,.14-29.93,0-44.9,0h0l0,.12,0,0a6.38,6.38,0,0,1-.53-.51,6.51,6.51,0,0,1-.71-.88,6.67,6.67,0,0,1-1.08-3.39,128.93,128.93,0,0,1,0-15.1,7,7,0,0,1,.52-2.37,5.54,5.54,0,0,1,1.92-2.36c6.62,0,13.25-.28,19.85.05,4,.2,4.88-1.24,4.72-4.92-.29-6.56-.12-13.15-.14-19.73v-.12h74v.12c0,15,0,29.93-.13,44.9,0,3.3.89,4.46,4.28,4.33,6.77-.25,13.56-.11,20.34-.13Z"/><path class="cls-7" d="M613.89,566.07h-.08l0,0Z"/><path class="cls-7" d="M638.5,590.77l0,0v-.08Z"/><path class="cls-7" d="M634.82,615.35c-5.61-.21-11.24.15-16.85-.13-3.46-.18-4.3,1.09-4.19,4.33.24,6.75.12,13.52.14,20.29V640h-.14c-6.95,0-13.89-.17-20.83,0-2.87.07-3.78-.77-3.77-3.71q.17-33.25,0-66.49c0-2.9.84-3.82,3.74-3.74,7,.18,13.9.05,20.85.05h0l.14.11a4.55,4.55,0,0,1,.4.35,6.22,6.22,0,0,1,.76.88c1.67,2.34,1.2,5.29,1.24,8,.19,12.17.56,12.54,12.73,12.73,2.75,0,5.7-.42,8,1.25a5.34,5.34,0,0,1,.82.71,4.35,4.35,0,0,1,.41.44,1.34,1.34,0,0,0,.11.14v0c0,6.93-.13,13.87,0,20.81C638.59,614.42,637.78,615.47,634.82,615.35Z"/><path class="cls-4" d="M367.73,664.54c-6.48,0-13-.13-19.45,0-3.72.08-5.27-1.45-5.16-5.17.15-4.94.1-9.89,0-14.84,0-3.23,1.38-4.66,4.62-4.63,6.65.07,13.31,0,20,0l.85.54c2.35,8.1,3.46,16.16-.77,24Z"/><path class="cls-4" d="M392.51,615.36,392.3,640l.13-.15a6,6,0,0,1-3.86,2.26,99.92,99.92,0,0,1-16.86,0,5.81,5.81,0,0,1-3.9-2.18l-.08-.07c0-6.27.21-12.54,0-18.8-.18-4.5,1.68-6,6-5.84C380,615.48,386.24,615.34,392.51,615.36Z"/><path class="cls-7" d="M60.12,566c-7,0-14-.09-20.95.13-3,.09-3.77-.94-3.7-3.79.15-6.93,0-13.87,0-20.81v-.14h.13l24.42.15v2.27q0,10.54.1,21.09Z"/><path class="cls-11" d="M515.48,295.31v49.34H489.73c-6.22,0-12.44-.12-18.67,0-3.44,0-4.92-1.43-4.88-4.88.08-6.62,0-13.25-.05-19.87a5.42,5.42,0,0,1-1.31-1.41,7.55,7.55,0,0,1-1-4c-.24-13.23-.26-26.45,0-39.68,0-1.63.15-3.32,1.43-4.59a1.14,1.14,0,0,0,.11-.11c.33-.14.65-.27,1-.39,7-2.64,14.28-1.36,21.48-.93a2.14,2.14,0,0,1,.57.12,5.61,5.61,0,0,1,2.24,1.91c.05,6.8.29,13.6.09,20.39-.1,3.41,1.07,4.37,4.35,4.25,6.75-.23,13.51-.11,20.27-.12Z"/><path class="cls-8" d="M490.64,270.79H466.36c-.43-.25-1.1-.35-1.22-.83-2-8-3.17-16,.95-23.78h24.54Q490.63,258.48,490.64,270.79Z"/><path class="cls-8" d="M687.73,615.35h-.1c-6.75,0-13.5-.18-20.23,0-3.25.09-4.49-.87-4.4-4.27.19-6.77,0-13.55-.06-20.33h1.41l21-.08h2.17q.12,12.3.22,24.59Z"/><path class="cls-2" d="M84.88,467.54c6.31,0,12.63.25,18.94,0,4.29-.15,5.73,1.6,5.59,5.74-.22,6.3-.06,12.62,0,18.94.94.95,2,1.85,2.11,3.31a84.62,84.62,0,0,1,0,18.07c-.16,1.44-1.21,2.35-2,3.39l.06,0-41.86-.13c-7.44,0-7.46,0-7.47-7.24,0-5.78,0-11.57,0-17.36,6.45,0,12.91-.17,19.35,0,4,.12,5.39-1.52,5.3-5.42C84.63,480.44,84.83,474,84.88,467.54Z"/><path class="cls-3" d="M564.75,516.9q0,12.33-.08,24.65c-7,0-14-.19-20.95,0-2.88.07-3.85-.81-3.75-3.73.23-7,.17-14,.22-20.94Z"/><path class="cls-7" d="M392.43,639.83v24.75h-.14l-23.6-.11h-.88V640h1l22.53-.11h1.12Z"/><path class="cls-2" d="M293.9,123.13V98.46c6.61,0,13.22.12,19.82,0,3.47-.06,4.9,1.37,4.84,4.83-.11,6.61,0,13.22,0,19.83Z"/><path class="cls-2" d="M294,98.52H269.29c0-6.46.13-12.92,0-19.38-.07-3.57,1.07-5.42,5-5.29,4.92.18,9.86.18,14.79,0,3.88-.13,5,1.72,4.94,5.29C293.83,85.6,293.94,92.06,294,98.52Z"/><path class="cls-2" d="M343.18,147.74H318.51V123.07c6.61,0,13.22.12,19.82,0,3.47-.06,4.9,1.37,4.84,4.83C343.06,134.52,343.16,141.13,343.18,147.74Z"/><path class="cls-3" d="M466.09,246.18l.27,24.61q-.12,24.54-.23,49.06l-24.59.18q0-37,0-73.91Z"/><path class="cls-4" d="M392.51,393.75c-14.48,0-28.95-.07-43.43.12-4.38.06-6.18-1.44-6-5.91.26-6.3.1-12.6.11-18.91,14.77.05,29.54.21,44.3.07,3.69,0,5.12.84,4.95,4.78C392.17,380.5,392.46,387.13,392.51,393.75Z"/><path class="cls-3" d="M416.93,319.93h24.7c0,6.82-.13,13.63,0,20.44.05,2.9-.59,4.4-3.92,4.27-5.61-.22-11.25-.22-16.86,0-3.33.13-4-1.37-3.92-4.27C417.06,333.56,416.94,326.75,416.93,319.93Z"/><path class="cls-4" d="M257,541.5q0-12.37-.1-24.74c-.47-.49-1.22-.94-1.32-1.52-1.38-7.49-2.34-15,.63-22.37l.85-.51,24.58-.19c0,14.46-.12,28.93.07,43.4.06,4.36-1.27,6.17-5.82,6C269.58,541.25,263.28,541.49,257,541.5Z"/><path class="cls-4" d="M109.41,517q0-12.37,0-24.77l24.5-.15a7.69,7.69,0,0,1,5.51-2.26c4.77-.17,9.54-.21,14.31,0a6.37,6.37,0,0,1,4.89,2.36h0q0,12.39,0,24.78Z"/><path class="cls-2" d="M158.57,492.25l-24.71-.14c0-6.32.21-12.64.06-19-.09-3.82,1.1-5.74,5.24-5.56,5,.22,9.91.14,14.86,0,3.29-.07,4.61,1.41,4.56,4.63C158.49,478.93,158.56,485.59,158.57,492.25Z"/><path class="cls-2" d="M183.21,492.27c0-6.46.09-12.92-.06-19.38-.08-3.57,1.07-5.42,4.94-5.28,4.93.17,9.87.17,14.79,0,3.88-.14,5,1.71,4.94,5.28-.14,6.46,0,12.92,0,19.38l0,0a6.13,6.13,0,0,1-4.29,2.3,116.61,116.61,0,0,1-16.08,0,6.17,6.17,0,0,1-4.3-2.3Z"/><path class="cls-2" d="M232.43,492.27c0-6.47.09-12.94-.06-19.4-.08-3.6,1.12-5.4,5-5.26,4.94.17,9.88.14,14.81,0,3.46-.1,5,1.31,4.89,4.82-.12,6.63,0,13.28,0,19.92l.06-.1a6.37,6.37,0,0,1-3.84,2.18,97.43,97.43,0,0,1-17.08,0,6,6,0,0,1-3.81-2.22Z"/><path class="cls-4" d="M441.65,516.79l.06,24.57c0,6.77-.21,13.55-.08,20.31.06,3.26-1.05,4.53-4.38,4.45-6.77-.17-13.54,0-20.31,0l0-49.25Z"/><path class="cls-4" d="M490.87,467.57c0,7-.18,14,0,21,.07,2.91-.83,3.82-3.74,3.75-7-.17-14,0-21,0,0-7,.18-14,0-21-.07-2.91.84-3.82,3.75-3.74C476.87,467.74,483.87,467.59,490.87,467.57Z"/><path class="cls-4" d="M466.26,492.18c0,7-.17,14,0,21,.07,2.91-.83,3.82-3.74,3.75-7-.17-14,0-21,0,0-7,.18-14,0-21-.07-2.91.84-3.82,3.75-3.75C452.26,492.35,459.26,492.2,466.26,492.18Z"/><path class="cls-6" d="M183.15,492.22h24.67c0,6.48-.14,13,0,19.44.08,3.65-1.21,5.35-5,5.23-6.47-.21-13-.15-19.44-.2Q183.26,504.45,183.15,492.22Z"/><path class="cls-6" d="M232.37,492.22l24.73,0q-.11,12.25-.22,24.5c-6.32,0-12.64-.11-18.95.15-4.3.18-5.72-1.61-5.58-5.75C232.56,504.85,232.38,498.53,232.37,492.22Z"/><path class="cls-4" d="M638.5,590.77c-7,0-14-.19-21,0-2.9.07-3.81-.83-3.74-3.74.16-7,0-14,0-21,7,0,14,.15,21,0,2.9-.07,3.85.89,3.78,3.78C638.35,576.79,638.49,583.78,638.5,590.77Z"/></svg>