<svg id="Layer_1" data-name="Layer 1" xmlns="http://www.w3.org/2000/svg" viewBox="0 0 795.76 436.56"><defs><style>.cls-1{fill:#010101;}.cls-2{fill:#292929;}.cls-3{fill:#616161;}.cls-4{fill:#737373;}.cls-5{fill:#f0f0f0;}.cls-6{fill:#999;}.cls-7{fill:#c4c4c4;}</style></defs><title>candy</title><path class="cls-1" d="M102.91,83.93C116.63,69.55,130.53,55.33,144,40.7c4-4.36,6.23-4.48,10.54-.28,22.21,21.63,44.77,42.9,67.2,64.3a5.07,5.07,0,0,1-.59,5.22c-6.28,7.64-12,15.92-21.46,20.15-5.09.54-8.35-2.74-11.63-5.78-9.13-8.43-17.94-17.21-27-25.68-8.65-8-12.37-7.92-20.75.22-3.93,3.82-7.26,8.58-13.38,9.29a45.36,45.36,0,0,1-24.21-22.66C102.75,85,102.83,84.45,102.91,83.93Z"/><path class="cls-1" d="M454.75,52.4c5.68-5.93,11.69-11.58,16.93-17.88,3.94-4.73,6.36-4.15,10.52-.11,28.53,27.65,57.32,55,86,82.5,1.33,1.28,2.74,2.49,4.11,3.73a4.67,4.67,0,0,1-.24,4.53c-6,7.78-11.56,16.17-21.46,19.77-4.62-.15-7.84-3-10.92-5.9q-39.86-37.78-79.34-75.93c-2.64-2.55-5.53-5.07-5.91-9.14Z"/><path class="cls-1" d="M595.62,96.76q32.86-34.54,65.69-69.12c2.6-2.75,4.36-2.86,7-.16,6.72,6.76,13.69,13.27,20.57,19.88.11.49.22,1,.34,1.47-1.47,7.64-8.1,11.43-12.58,16.81-2.53,3-5.62,5.58-8.41,8.39-7.37,8.44-15.15,16.48-23.2,24.27-5.4,6.21-11,12.21-16.92,17.92-2.43,2.35-4.69,5.19-8.61,5.15-10.09-3.56-16.27-11.79-23-19.36C595.27,100.56,595.54,98.58,595.62,96.76Z"/><path class="cls-1" d="M33.66,156.3c-6.9-6.57-13.71-13.24-20.75-19.66-2.79-2.54-2.83-4.29-.19-7Q44.16,97,75.32,64.19c2.62-2.76,4.37-2.79,7-.12C89.08,70.82,96,77.33,102.91,83.93v-.17c.64,4-1.52,6.95-4,9.72Q91.1,102.2,82.6,110.26c-7.42,8.36-15.06,16.51-23.18,24.2-5.22,6-10.61,11.8-16.29,17.34-2.27,2.21-4.51,4.54-8,4.78Z"/><path class="cls-1" d="M577.52,308.71q-34.2,35.58-68.38,71.17c-2.15.25-4.31.35-6.07-1.16-7.38-6.37-15.66-11.94-19.57-21.48-.22-4.5,3-7.17,5.65-10,12.62-13.41,25.16-26.91,38.33-39.8,5.61-6.31,11.32-12.51,17.4-18.37,2.31-2.22,4.85-4.07,8.12-4.63,11.52,4,19.4,12,24.79,22.69Z"/><path class="cls-1" d="M320.05,384.23c-6.38,6.72-12.85,13.35-19.1,20.19-2.54,2.77-4.34,3.77-7.6.6-22.38-21.77-44.93-43.36-67.43-65-.26-2.14-.36-4.31,1.15-6.06,6.36-7.38,11.94-15.63,21.44-19.58,4.52-.24,7.2,3,10,5.64q28.25,26.52,56,53.56c2.61,2.54,5.52,5,5.83,9.09C320.26,383.19,320.15,383.71,320.05,384.23Z"/><path class="cls-1" d="M688.92,47.36c6.56-6.9,13.22-13.7,19.64-20.73,2.51-2.75,4.27-2.92,7-.24q20.48,19.92,41.27,39.49c2.76,2.6,2.84,4.36.15,7-6.73,6.72-13.22,13.69-19.81,20.57l-1.48.35c-7.33-1.21-10.93-7.53-16-11.77-3.4-2.83-6.25-6.25-9.38-9.37q-8.85-7.64-17-16c-2.6-2.65-4.87-5.45-4.4-9.52Z"/><path class="cls-1" d="M762.3,210.07c6.7,6.41,13.26,13,20.18,19.14,3.44,3.06,3.2,5,.1,8.21-14.27,14.58-28.31,29.38-42.43,44.1l-1.59.29c-10.38-3.79-16.74-12.3-23.31-20.39-2.59-3.2-.4-6.53,1.87-9.25a249.53,249.53,0,0,1,19-20c5.22-5.87,10.51-11.68,16.14-17.17,2.42-2.37,4.74-5,8.48-5.24Z"/><path class="cls-1" d="M37.89,297c-6.52-6.2-12.85-12.61-19.63-18.52-3.9-3.4-3.93-5.61-.26-9.35,14.1-14.34,27.86-29,41.74-43.57l1.54-.37a43.68,43.68,0,0,1,23.84,23.44c-1,7.72-7.37,11.7-11.89,16.95a130.39,130.39,0,0,1-9.41,9.4C58.49,281,53,287,47.25,292.6c-2.23,2.17-4.45,4.44-7.86,4.67Z"/><path class="cls-1" d="M742.52,327.65c6.66,6.41,13.24,12.91,20,19.19,2.72,2.52,3.86,4.32.66,7.58-13.32,13.59-26.43,27.36-39.47,41.21-2.63,2.8-4.38,2.7-7,.09-6.77-6.68-13.79-13.09-20.7-19.61-.11-.51-.21-1-.32-1.52.14-3.44,2.25-5.87,4.41-8.2Q716.26,348.95,733,332c2.23-2.24,4.54-4.5,8-4.69Z"/><path class="cls-1" d="M649,376.76l-48.17-46.13c-.26-2.13-.41-4.31,1.13-6,6.41-7.18,11.54-15.82,21.4-19.15a12.25,12.25,0,0,1,7.86,3.32c13.16,11.83,25.9,24.1,38.36,36.66a15.63,15.63,0,0,1,3.35,5.34,5.89,5.89,0,0,1,.33,3.11C669.63,363.2,661.87,369,655,375.43,653.25,377,651.09,377,649,376.76Z"/><path class="cls-1" d="M737.2,93.49c14.16,13.54,28.21,27.2,42.57,40.53,3.76,3.5,4.09,5.72.26,9.36-6.52,6.19-12.54,12.91-18.77,19.41l-1.5.35c-2.84,0-5-1.56-7-3.35Q734.47,143,716.89,125.42a18.1,18.1,0,0,1-3.75-6,5.76,5.76,0,0,1-.18-3.08c6-9.89,11.87-19.87,24.32-22.87Z"/><path class="cls-1" d="M84.94,342c-6.56,6.9-13.22,13.71-19.64,20.75-2.52,2.76-4.28,2.9-7,.22q-19.91-19.38-40.14-38.41c-2.8-2.63-2.74-4.39-.09-7,6.74-6.73,13.25-13.68,19.85-20.55h-.18c4.15-.66,7.07,1.62,9.88,4.13q8,7.17,15.37,15c6.05,5.32,12,10.76,17.59,16.54,2.17,2.22,4.44,4.44,4.66,7.85Z"/><path class="cls-1" d="M595.62,96.76l23.79,22.76c1.76,4-1,6.54-3.21,9.09-5.36,6.23-11.17,12-17.08,17.75-5.27,6-10.66,11.8-16.39,17.32-2.26,2.18-4.39,4.71-7.92,4.88a47.37,47.37,0,0,1-24.89-23.14c.06-.53.13-1,.19-1.58q11.11-11.59,22.24-23.2Z"/><path class="cls-1" d="M201.47,317.14,179.26,340c-12.39-3.25-19.79-11.92-25-23,.25-3.94,2.42-6.91,5-9.64q15.63-16.85,31.77-33.2c2.61-2.66,5.46-5,9.37-5.5,11.93,4.41,20.05,12.92,25.86,23.94C220.91,303.75,214.14,313.43,201.47,317.14Z"/><path class="cls-1" d="M59.74,225.56c-14.51-13.92-28.9-28-43.62-41.68-3.83-3.57-3.91-5.79-.15-9.35,6.14-5.82,11.82-12.13,17.69-18.23h-.18c4.11-.66,7,1.57,9.81,4.07,5.88,5.26,11.5,10.79,17,16.46,6.26,5.53,12.39,11.22,18.19,17.24,2.31,2.4,5.08,4.65,5,8.5-5.23,10.35-11.32,19.83-23.57,23Z"/><path class="cls-1" d="M243.88,82c14-14.77,28.11-29.46,42-44.37,3-3.26,5-3.53,8.19-.24,6.07,6.26,12.55,12.13,18.86,18.16.12.52.23,1,.35,1.54-.19,4.07-3,6.68-5.46,9.35q-15.1,16.22-30.62,32c-3,3-6,6-10.54,6.49C256,100.36,246.91,94.15,243.88,82Z"/><path class="cls-1" d="M243.88,82l22.52,21.59c.17.5.34,1,.52,1.51.16,3.53-2,6-4.15,8.28-10.93,11.87-22,23.65-33.51,34.93-6.41,6.27-8.9,6.34-15.48.4-5.63-5.09-12.12-9.5-15.3-16.86a5.41,5.41,0,0,1,.29-3.11l22.94-24Z"/><path class="cls-1" d="M485.36,357.09l23.78,22.79c-6.33,6.73-12.78,13.33-18.91,20.23-2.94,3.32-5.07,3.51-8.25.25-6.45-6.6-13.26-12.86-19.91-19.26-.13-.51-.25-1-.37-1.53C467.05,369.4,472.72,359.57,485.36,357.09Z"/><path class="cls-1" d="M649,376.76l23-23.92a6.07,6.07,0,0,1,6,1.18c7.12,6.48,16.23,11.27,18.75,21.72l-.23.39-.45,0c-6,6.26-12.13,12.36-17.87,18.83-3.46,3.91-6.13,4.75-10.09.54C661.93,389,655.33,383,649,376.76Z"/><path class="cls-1" d="M344.57,407.33l-24.52-23.1-.07.08c3.16-12.69,12.6-19.74,23.14-25.81a48.52,48.52,0,0,1,25.45,24.36C364.06,394.44,356.89,403.4,344.57,407.33Z"/><path class="cls-1" d="M761.26,162.79c6.88,6.58,13.67,13.26,20.7,19.68,2.79,2.55,2.83,4.35.15,7-6.74,6.73-13.22,13.7-19.81,20.57h.08c-12.68-3-19.84-12.06-25.29-23,4.79-11.39,11.69-20.66,24.24-24.29Z"/><path class="cls-1" d="M201.47,317.14l23.16-24a5.25,5.25,0,0,1,5.27.45A88.59,88.59,0,0,1,248.08,311a5.14,5.14,0,0,1,.63,5.24L225.92,340Z"/><path class="cls-1" d="M312.91,55.53l23.34-24a8.81,8.81,0,0,1,7.86,2.59c6.5,6.25,14.52,11.2,17.69,20.35a48.43,48.43,0,0,1-24.47,25.31C325.79,75.11,316.66,68,312.82,55.54Z"/><path class="cls-1" d="M438.63,405.26c-6.34,6.72-12.84,13.29-18.94,20.23-3.08,3.51-5.13,3.14-8.18,0-6.45-6.6-13.25-12.87-19.91-19.28-.1-.51-.21-1-.31-1.54,5-10.84,12.39-19.21,23.71-23.67C425.84,386.22,435.5,392.56,438.63,405.26Z"/><path class="cls-1" d="M438.63,405.26l-23.76-22.81c-.16-.51-.31-1-.47-1.54,4.77-11.17,12.52-19.46,23.63-24.52,10.65,5.71,20.49,12.21,24.1,24.77l-.06-.06Q450.34,393.17,438.63,405.26Z"/><path class="cls-1" d="M360.13,54.27,336.25,31.52c6.51-6.93,13.12-13.77,19.48-20.83,2.57-2.84,4.38-2.76,7-.11,6.72,6.73,13.68,13.21,20.55,19.79.11.51.23,1,.34,1.53C378.32,42,372.67,51.76,360.13,54.27Z"/><path class="cls-1" d="M155.35,316.94,179.26,340c-6.32,6.72-12.82,13.29-18.91,20.22-3,3.47-5.1,3.23-8.18.08-6.46-6.6-13.27-12.85-19.94-19.24-.12-.48-.24-1-.35-1.45a43.14,43.14,0,0,1,22-23Z"/><path class="cls-1" d="M430.38,29.44l24.37,23h.1C451.67,65,442.76,72.29,431.72,77.65c-11.89-4.4-20-12.92-25.84-23.85C411.07,42.7,417.79,33.12,430.38,29.44Z"/><path class="cls-1" d="M430.38,29.44,407.52,53.22c-.5.16-1,.51-1.49.44-7.72-1.2-21.46-15.36-22.72-23.36v.07C389.88,23.5,396.55,16.71,403,9.69c2.53-2.76,4.34-2.93,7-.19C416.66,16.27,423.57,22.81,430.38,29.44Z"/><path class="cls-1" d="M344.57,407.33l22.87-24L369,383c10.49,5,19.54,11.39,22.65,23.5v-.22c-6.37,6.7-12.88,13.26-19.05,20.14-2.9,3.24-4.94,3.71-8.17.34C358,420.05,351.2,413.77,344.57,407.33Z"/><path class="cls-1" d="M132.23,341.06c-6.4,6.7-13,13.25-19.12,20.17-3,3.41-5.08,3.34-8.21.13-6.46-6.64-13.28-12.91-20-19.34v.26c2.92-12.76,12-19.89,23-25.39,11.4,4.78,20.67,11.69,24.31,24.25Z"/><path class="cls-1" d="M740.15,281.52c6.7,6.37,13.26,12.9,20.15,19.06,3.28,2.93,3.63,5,.31,8.18-6.25,6.07-12.09,12.57-18.09,18.89h-.19c-2.4.12-4.8,0-6.65-1.73-6.9-6.59-15.81-11.39-19-21.26,5.15-10.52,11.28-20.05,23.69-23.14Z"/><path class="cls-2" d="M623.57,306.65l-22.79,24-23.26-21.92-.06.07c3-12.48,12.07-19.6,22.64-25.35,11.29,3.53,18.76,11.26,23.8,21.66Z"/><path class="cls-3" d="M127.15,106.66c5.32-5.49,11-10.69,15.86-16.56s8.68-6.43,14.5-.58c13.37,13.44,27.46,26.17,41.26,39.2l-.46.58a8,8,0,0,1-2.1,7.25c-6.25,6.55-11.08,14.74-20.37,17.81a12,12,0,0,1-7.86-3.29q-19.69-17.72-38.26-36.63a9.26,9.26,0,0,1-2.76-4.72A5.08,5.08,0,0,1,127.15,106.66Z"/><path class="cls-4" d="M79.91,108.22Q91.4,96,102.91,83.76l24.24,22.9-.23.7c.41,7.46-5.6,11-9.77,15.47-12.51,13.36-13.69,13.38-26.89.46C85.89,119,79.75,115.7,79.91,108.22Z"/><path class="cls-3" d="M431.63,76.37l23.22-24,95.26,91.43,0-.12a8.44,8.44,0,0,1-2,7.38c-6.29,6.65-11.17,14.92-20.57,18-4.6-.14-7.81-3-10.89-5.87q-40-37.91-79.59-76.17c-2.26-2.18-4.65-4.37-5.51-7.6A5.36,5.36,0,0,1,431.63,76.37Z"/><path class="cls-2" d="M642.62,95.79,666,71.38c4.09-.59,6.91,1.75,9.65,4.22,5.82,5.24,11.4,10.72,16.83,16.35,5.91,5.2,11.64,10.57,17.15,16.18,2.62,2.67,4.9,5.51,4.53,9.59v-.15c-3,12.55-12.05,19.75-22.78,25.4-6.36-.38-10-5.15-14.17-8.93-4.44-4-8.65-8.26-12.78-12.59-5.89-5.21-11.64-10.56-17.16-16.16C644.7,102.64,642.26,99.91,642.62,95.79Z"/><path class="cls-5" d="M642.62,95.79l24,23c1,4.18-1.5,7-4,9.72-5.21,5.87-10.74,11.45-16.39,16.91-5.88,6.59-11.83,13.13-18.31,19.14a16.88,16.88,0,0,1-7.45,4.07c-10.88-5.41-20.49-12-23.82-24.72l22.72-24.42Z"/><path class="cls-4" d="M690.05,94.34l-24-23,22.88-24.2,23.94,23.33c.52,2.76,0,5.38-2,7.28C704.32,83.81,700.69,93.5,690.05,94.34Z"/><path class="cls-6" d="M79.91,108.22C86,114,92.22,119.67,98.15,125.61c4,4,7.34,4.12,11.25-.14,5.67-6.19,11.67-12.09,17.52-18.11l48.46,45.52.43,1.51c-4.38,11.17-12.53,18.76-22.95,24.17-6.2-.25-9.77-4.85-13.87-8.5-8.85-7.87-12.52-7.85-20.85.3-13.4,13.11-13.39,13.1-27.09.13q-6.63-6.28-13-12.88c-6-5.19-11.78-10.61-17.29-16.32-2.42-2.51-4.66-5.14-3.88-9Z"/><path class="cls-4" d="M56.91,132.25l23.93,23c-1,9-13.85,22.48-22.88,24.1L33.48,156.31Z"/><path class="cls-6" d="M462.13,381.16l-24.26-22.93c-1.9-4.79,1.77-7.41,4.3-10.21,8.13-9,16.79-17.58,25.07-26.48,7.94-8.56,7.68-12.24-.38-20.76-3.84-4.07-9.68-6.9-9.59-13.77a22,22,0,0,1,5.32-8.73q16.17-17.43,32.86-34.36c2.61-2.66,5.43-5.06,9.31-5.67,11.78,3.85,19.12,12.69,25.4,22.68.89,4.77-1.83,8.14-4.81,11.13-11.85,11.86-13.73,15.49.26,28,2.78,2.49,5.2,5.37,4.41,9.6l-44.66,47.4Z"/><path class="cls-4" d="M530,309.69c-5.89-5.68-11.6-11.57-17.73-17-5-4.38-4.73-8-.12-12.46,5.89-5.68,11.38-11.77,17-17.68l1.46-.39a42.78,42.78,0,0,1,23,22.1l-.33,1.47Z"/><path class="cls-4" d="M600.67,284.89l-23.21,23.89-24.08-23v-.16c-.66-4.09,1.49-7.07,4.12-9.68,5.67-5.65,10-12.87,18.22-15.57,11.9,3.05,18.63,12.12,25.1,21.52A5.25,5.25,0,0,1,600.67,284.89Z"/><path class="cls-6" d="M248.71,316.24l-24.08-23.11-24.19-23.37c-.12-.49-.23-1-.34-1.47,4.29-10.78,12.45-18,22.1-23.79a5.57,5.57,0,0,1,3,0c3.9,1.2,6.85,3.82,9.71,6.55,13.28,12.72,26.81,25.18,39.68,38.33,21.48,19.68,42.31,40.05,63.25,60.3,2.9,2.8,6.95,5.4,5.38,10.62l-23.27,24Z"/><path class="cls-3" d="M690.05,94.34l22.81-23.83,24.42,23L714.2,117.72Z"/><path class="cls-4" d="M740.33,281.52l-22.13,23c-3.62,1.32-6.12-.85-8.44-3q-18.69-17-36.51-34.9a14.26,14.26,0,0,1-4.44-8.18c.25-3.63,2.08-6.5,4.45-9.08q16.71-18.13,34.13-35.61c2-2,4.14-4.2,7.38-4.24,11,5.31,20.74,11.87,24.23,24.59-6.15,6.55-12.17,13.23-18.49,19.62-3.38,3.42-3.21,6,.28,9.21C727.42,269,733.83,275.31,740.33,281.52Z"/><path class="cls-3" d="M739,234.1l-23.85-22.8c-.53-1.24-1-2.69-.23-3.79,5.83-8.35,11.64-16.76,21.62-20.81l1.55.25,24.29,23.12Z"/><path class="cls-4" d="M61,319,37.71,297,61.14,273C73.25,275.66,80,284.29,85,294.74,80.31,306.07,73.34,315.16,61,319Z"/><path class="cls-6" d="M83.61,294.63,61.14,273l22.65-24.54,1.55-.29c10.68,4.31,17.88,12.28,23.31,22.12-3.78,11.41-12.53,18.39-22,24.71A4.9,4.9,0,0,1,83.61,294.63Z"/><path class="cls-2" d="M59.93,225.56l21.72-22.87c1.52-.69,3.29-.94,4.54,0,8.19,6.44,17.21,12.15,21,22.7C103,236.61,95.91,245,84.24,249l-.45-.54Z"/><path class="cls-2" d="M669.91,258.29l48.29,46.18,24.13,23.18-45.65,48.09L672,352.84l0,.09c-.79-6.23,3.89-9.51,7.34-13.38,8.25-9.22,8.21-12.47-.77-21.22-8.53-8.33-17.23-16.47-25.79-24.77-2.86-2.77-5.66-5.59-7.06-9.47a5.43,5.43,0,0,1-.14-2.91c5.43-9.89,12.2-18.45,22.86-23.19Z"/><path class="cls-7" d="M646.91,282.35c14.25,13.71,28.37,27.55,42.83,41,4.24,3.95,4.73,6.62.34,10.75-6.33,6-12.1,12.5-18.1,18.8l-48.41-46.28.45-.1c-.23-1.81-.73-3.85.58-5.26C631.26,294.08,635.49,284,646.91,282.35Z"/><path class="cls-3" d="M690.76,141.9l23.44-24.33,47.13,45.22L738.09,187h.13c-3.45.51-6.21-.89-8.66-3.12q-18-16.35-35.1-33.56c-1.89-1.89-3.48-4-3.83-6.8C690.67,142.94,690.72,142.42,690.76,141.9Z"/><path class="cls-7" d="M61,319l22.58-24.33.58.44a7.31,7.31,0,0,1,6.59,1.58c6.35,5.73,13.62,10.6,17.53,18.63a5.08,5.08,0,0,1,0,2.94L85,342.28Z"/><path class="cls-6" d="M596.69,143.94l23.85,23a10.09,10.09,0,0,1,8.62,3.19c6.05,6.14,14,10.61,17.19,19.28-3.45,11.24-12.07,18-21.09,24.41a7,7,0,0,1-2.79.77c-6.14-1.15-9.81-5.91-14.11-9.74-7.89-7-11.21-6.92-18.84.3-4.47,4.23-7.84,10.29-15.28,10.15-10.43-5.62-19.32-12.77-24-24.08,4.62-11.45,11.83-20.37,24-24.42Z"/><path class="cls-1" d="M574.18,166.8,551.2,191l-1.45.36a42.67,42.67,0,0,1-22.85-22c.12-.48.24-1,.35-1.45l22.89-24.24Z"/><path class="cls-7" d="M200.44,269.76l-45.09,47.18h0a9.33,9.33,0,0,1-7.91-2.58c-6.55-6.26-14.52-11.28-17.86-20.36-.26-3.87,2.37-6.31,4.63-8.77,10.65-11.61,21.58-23,32.63-34.17,2.6-2.64,5.43-5,9.3-5.52,11.42,4.8,20.76,11.66,24.31,24.32Z"/><path class="cls-7" d="M106,225.67l-24.34-23L58,179.37l22.88-24.1c6.33,6,12.73,12,19,18.16,3.59,3.53,6.74,3.47,10.15-.23,4.31-4.68,8.89-9.12,13.2-13.8,3.41-3.71,6.56-3.74,10.14-.21,6.24,6.14,12.64,12.11,19,18.16l.36,1.47c-1.1,7.17-7.23,10.72-11.39,15.66a131.13,131.13,0,0,1-9.5,9.51c-5.2,6-10.6,11.77-16.27,17.3-2.26,2.2-4.53,4.5-8,4.69Z"/><path class="cls-3" d="M312.82,55.54l24.24,22.91.41,1.49c-.68,6.43-6,9.72-9.69,14s-7.77,7.93-11.71,11.85c-5.95,6.76-12.13,13.28-18.63,19.53-4.42,4.25-8.63,4.37-13.23.33A197.47,197.47,0,0,1,269.87,112c-2.07-2.22-3.43-4.68-3-7.85l-.49-.56Z"/><path class="cls-6" d="M266.89,104.13c6.11,5.82,12.36,11.51,18.29,17.51,4.12,4.19,7.41,3.8,11.22-.4C302.07,115,308.07,109,313.93,103c5.92-1.1,9.05,3.28,12.65,6.56,10.39,9.47,12.48,9.45,22.51-.73,3.12-3.18,6.11-6.52,10.42-8.19a5,5,0,0,1,2.6-.29c6.18,1.76,10,6.75,14.53,10.72,6.92,6,10.28,5.93,17-.47,4.36-4.17,7.9-9.38,14.13-11.24a6,6,0,0,1,2.88.4c4.36,1.63,7.53,4.87,10.78,8q37.6,35.87,75.08,71.85c3.23,3.1,6.63,6.11,8.36,10.44a5.76,5.76,0,0,1,.43,3c-4.46,11-14.28,17.43-21.82,25.81-12.33,13.75-25.34,26.85-38.11,40.19-2.56,2.67-5.25,5.2-8.82,6.54a5.74,5.74,0,0,1-3.07.24c-10.42-5.36-18.67-13-24.17-23.4-.28-5,3-8.29,6.05-11.58,8.65-9.32,17.65-18.32,26.27-27.66,7.29-7.9,7.14-11.86-.62-19.51-7.36-7.26-14.76-14.48-22.44-21.39-6.69-6-11-6.15-17.17.2-15.59,16-15,15-30.58.46-6.18-5.76-10.58-5.64-16.56.45-15.13,15.44-14.53,15.77-30.58.72-6.25-5.87-10.53-5.71-16.57.18-8.15,8-16.06,16.18-23.61,24.7-5.3,6-5.06,10.08.3,16,3.19,3.55,6.9,6.59,9.91,10.31,2.43,3,3.33,6.26.68,9.38-6.81,8-12.91,16.88-22.91,21.53-5.26.59-7.93-3.52-11.11-6.41-13-11.78-13.71-11.84-26.06.24-3,2.94-5.89,6.1-10.7,5.55h0c-3.75.59-6.64-1.13-9.14-3.59-5.75-5.64-12.79-10.14-16-18-.83-6.45,3.9-10,7.54-14,9.42-10.36,9.42-12.91-.69-22.7-3.4-3.3-6.6-6.8-10-10.13-5.5-4.61-10.66-9.56-15.68-14.67-2.46-2.51-4.66-5.14-4.25-9l0-.62,22.93-23.58c6,5.58,12.2,11,17.94,16.8,3.91,4,6.67,3.64,10.41-.31C239.92,131.77,253.46,118,266.89,104.13Z"/><path class="cls-7" d="M343.25,360.31,272,291.85c-.68-4.15,1.54-7.14,4.17-9.83,5.33-5.47,9.74-12,17-15.28a5.63,5.63,0,0,1,3-.27C307,271,313.42,280.66,321.7,288.18q12,10.56,23.11,22.1c13.75,12.31,26.84,25.32,40.16,38.07,2.67,2.56,5.2,5.25,6.53,8.82a5.71,5.71,0,0,1,.23,3.09c-5.91,10-11.85,19.9-24.29,23v.14Z"/><path class="cls-3" d="M383.31,30.3l24.21,22.92,24.11,23.15v.39c-1.25,9.12-14.14,22.51-23.13,24h0c-6.22.81-9.46-3.89-13.28-7.34-9.36-8.44-12.09-8.38-21.07.46-3.67,3.62-6.69,8.46-12.94,7.92h0c-9.05-1.1-22.52-13.91-24.17-23v-.39l23.07-24.18Z"/><path class="cls-6" d="M367.44,383.22l23.12-23.88c.5-.15,1-.5,1.5-.42,7.71,1.28,21.15,15,22.4,22.86l.41.67-23.27,24Z"/><path class="cls-7" d="M414.46,381.78l-23.9-22.44v-.55c-.72-4.87,2.52-7.84,5.37-10.92,8.44-9.1,17.23-17.89,25.65-27,7.32-7.92,7.14-11.77-.32-19.54-4.15-4.32-9.38-7.92-10.31-14.55,5.79-9.66,11.57-19.3,23.74-22.08l-.09-.05c9,1,22.53,13.73,24.18,22.85,6.07,5.88,12,11.93,18.26,17.58,4.6,4.13,4.45,7.51.21,11.87C464,330.57,451,344.45,437.87,358.23Z"/><path class="cls-3" d="M131.16,294.06q12.1,11.43,24.19,22.88l-23.12,24.2-23.94-22.92-.53-.52C109.79,308,122.93,294.71,131.16,294.06Z"/><path class="cls-4" d="M646.91,282.35,624,306.55l-23.35-21.66v-.65c3.34-12.46,12.51-19.61,23.15-25.42,10.7,5,19.7,11.61,23.08,23.71Z"/><path class="cls-4" d="M408.51,100.77l23.13-24L527.25,168v0c-1.27,9.3-14.4,23-23.27,24.19Z"/><path class="cls-7" d="M643.7,143.1l22.91-24.28,24.15,23.08.09-.17c.15,2.09.42,4.26-1.06,6-6.38,7.54-12,15.92-21.71,19.84C656.79,162.58,647.7,155.37,643.7,143.1Z"/><path class="cls-4" d="M643.7,143.1q12.09,11.43,24.17,22.87c7.15-.57,10.72,5,15,9,14.47,13.54,14.48,14.33.58,28.63-4.15,4.27-7.53,9.68-14,11.16-11.4-4.94-20.76-11.94-24.7-24.43l-24.26-23.43Z"/><path class="cls-7" d="M175.4,153.5l23.07,21.79c-3.21,12.5-12.08,19.81-23.09,25.15-11-4.44-19.88-11-23.11-23.14v0Z"/><path class="cls-2" d="M551.2,191l24.12,23.15.42,1.46c-.88,6.85-6.63,10.28-10.59,14.93-3.19,3.77-6.93,7-10.45,10.5q-7.55,8.74-15.8,16.79c-2.68,2.6-5.4,5.25-9.68,4.35v.34l-24.15-23.28c-.11-.49-.23-1-.34-1.48,1.25-7.29,7.54-10.89,11.78-16,2.83-3.39,6.24-6.23,9.36-9.35,5-5.84,10.32-11.42,15.8-16.83,2.69-2.65,5.53-5,9.68-4.64Z"/><path class="cls-2" d="M458.77,287.49l-24.18-22.85,46.28-48.12c2.13-.25,4.38-.54,6.05,1.06,6.88,6.59,16.65,10.81,18.14,21.87v-.17Z"/><path class="cls-3" d="M529.22,262.22l23.36-23.89c11.71,2.43,17.87,11.37,24,20.39a4.68,4.68,0,0,1-.36,2.9l-22.82,24Z"/><path class="cls-6" d="M623.76,260.64l-23.1,23.6L576.2,261.62l.44-.28c-.31-2.39-.14-4.67,1.55-6.59,6-6.78,11.25-14.33,19.74-18.43a5.67,5.67,0,0,1,3.11-.12c9.24,3.86,15.11,11.65,21.65,18.63A5.28,5.28,0,0,1,623.76,260.64Z"/><path class="cls-4" d="M295.12,267.68,272,291.85,223.61,245.6c6-6.25,12.09-12.42,18-18.79,3.66-4,6.9-3.85,10.66-.14,6.18,6.07,12.58,11.93,18.88,17.87C280.27,245.87,293.72,258.84,295.12,267.68Z"/><path class="cls-2" d="M199.37,222.49l24.25,23.11-23.17,24.26-24.14-23.21L176,245.2a43.34,43.34,0,0,1,22-23Z"/><path class="cls-2" d="M668.68,213.28c6.05-6.26,12-12.62,18.2-18.73,3.8-3.75,4-6.86-.11-10.56-6.45-5.85-12.61-12-18.9-18l23-24.24L738.22,187,715.15,211.3l-45.24,47h.1c-4.44.71-7.61-1.74-10.34-4.6-5.14-5.41-12.33-9.13-14.37-17.15C650.2,225.88,656.58,216.71,668.68,213.28Z"/><path class="cls-5" d="M131.16,294.06l-23.4,23.64L84.19,295.07q11.31-12.18,22.61-24.38c-.41-4.78,2.57-7.88,5.45-11,4.47-4.9,9.09-9.65,13.93-14.18,7.89-7.89,14-17.67,24.33-23a5.62,5.62,0,0,1,3.07-.12c9.85,6,19.69,12,22.89,24.25h-.16Z"/><path class="cls-7" d="M129,247.46,106.8,270.69,84.24,249,106,225.67h.07C115,226.71,127.38,238.44,129,247.46Z"/><path class="cls-7" d="M647,236.34l23,22-23.12,24.24-23.13-21.89-24.14-23.33a6.51,6.51,0,0,1,1.59-6.51c6.59-6.64,10.74-16.29,21.6-17.74h-.14C631.91,214.23,645.4,227.13,647,236.34Z"/><path class="cls-5" d="M622.81,213.06l-23.19,24.25h0c-9.12-1.07-22.7-14.07-24.14-23.12h-.16c6-6.26,12.23-12.39,18.09-18.83,3.62-4,6.62-4.23,10.5-.31C610,201.23,616.49,207.07,622.81,213.06Z"/><path class="cls-5" d="M647,236.34l-24.35-23.28,22.13-22.69,23.88,22.91Z"/><path class="cls-3" d="M551.34,191Q539.66,203.08,528,215.14c-9-1.07-22.49-14-24-23h0l23.27-24.19Z"/><path class="cls-6" d="M129,247.46l-23-21.79q11.67-12.09,23.33-24.17c9.21,1.35,21.56,13.32,22.78,22.06Z"/><path class="cls-3" d="M152.17,223.56,129.39,201.5q11.45-12.1,22.88-24.2l23.09,22.16.3,1.52c-5.14,10.33-11.46,19.43-23.49,22.58Z"/><path class="cls-4" d="M337.07,78.84l24.17,23c-6.06,6.3-12.18,12.54-18.15,18.93-3.41,3.65-6.53,3.78-10.14.26-6.25-6.1-12.67-12-19-18Z"/><path class="cls-7" d="M295.12,267.68l-24-23.14c5.47-5.78,10.67-11.85,16.48-17.27,5.49-5.12,4.92-9.12-.55-13.65-4.08-3.37-7.62-7.39-11.57-10.94S271,196,274.92,192q17.76-18.26,35.24-36.8c3.54-3.74,6.69-3.46,10.14,0s6.89,6.62,10.36,9.91c8.5,8.08,8.5,8.08,16.88-.64,2.21-2.29,4.4-4.6,6.61-6.9,8.13-8.44,8.13-8.44,16.9-.09q2.31,2.19,4.6,4.4c10.79,10.31,10.79,10.31,20.84-.19,2.57-2.68,5.25-5.27,7.7-8.06,3.47-4,6.74-4.37,10.72-.5q18,17.49,36.25,34.66c4.37,4.07,3.82,7.31-.05,11.34-13.62,14.15-27,28.48-40.52,42.75l-1.26.3c-6.07-.66-9.23-5.62-13.36-9.1-6.66-5.63-10.06-5.71-16.23.32-4.12,4-8.18,8.12-12.33,12.13-7.26,7.75-13.42,16.63-22.89,22.06a6.66,6.66,0,0,1-2.71.57c-6.28-1.5-10.05-6.51-14.57-10.47-7.17-6.26-10.56-6.08-17.61.44-4.3,4-7.34,10.06-14.6,9.57Z"/><path class="cls-4" d="M434.68,264.69l-22,23.17C410.1,300,400.28,306.18,391.5,313.1c-1.89,1.49-4.68.44-6.61-1.2-7.45-6.29-15.35-12.16-20.26-20.9a6.59,6.59,0,0,1-.59-3.09c4.41-11.1,14.31-17.59,21.91-26q7.2-8.25,15-15.93c2.65-2.6,5.42-4.92,9.48-4.6l.19.49Z"/><path class="cls-4" d="M361.23,101.81c6-6.32,12.16-12.58,18.14-19,3.42-3.66,6.61-3.73,10.19-.23,6.25,6.12,12.63,12.11,19,18.16-6.06,6.31-12.19,12.55-18.16,18.94-3.43,3.67-6.57,3.74-10.15.23C374,113.81,367.56,107.85,361.23,101.81Z"/><path class="cls-4" d="M504,192.11l24,23-22.93,24.3-24.19-22.93Z"/><path class="cls-2" d="M175.36,199.46l23.11-24.17c6.3,6,12.44,12.23,19,18,4.19,3.72,4,6.61.11,10.38-6.25,6.08-12.13,12.52-18.17,18.81h.16c-9.25-1.06-22.86-14.11-24.15-23.17Z"/><path class="cls-5" d="M365.35,288.67c6.5,6.21,13.12,12.3,19.45,18.67,3.34,3.35,5.89,3.43,9.17-.13,6.07-6.61,12.48-12.92,18.75-19.35,6.13,5.82,12.15,11.77,18.44,17.42,4.34,3.91,4.09,7.23.12,11.29-13.68,14-27.17,28.14-40.73,42.22l-48.37-46C343.4,303.57,356.49,290,365.35,288.67Z"/><path class="cls-6" d="M295,267.68c6-6.24,12.07-12.39,17.94-18.75,3.61-3.92,6.83-4,10.63-.26,6.13,6.1,12.48,12,18.74,18a6,6,0,0,1-1.18,5.94c-6.56,6.86-10.83,16.51-21.72,18.2Z"/><path class="cls-4" d="M319.44,290.77l22.9-24.14h0c9.12,1.08,21.53,13,23,22v0l-23.17,24.09Z"/><path class="cls-7" d="M575.48,214.19l24.14,23.12-23,24-24.06-23Z"/><path class="cls-6" d="M175.38,199.31l24.15,23.17-23.06,24.16-24.3-23.08Z"/><path class="cls-6" d="M365.35,288.64l-23-22q11.57-12.08,23.12-24.16c8.93,1,21.26,12.69,23,21.79Q376.94,276.46,365.35,288.64Z"/><path class="cls-5" d="M388.5,264.26l-23-21.79c5.5-5.73,11.12-11.35,16.44-17.24,3.83-4.24,7.21-4.51,11.3-.35,5.58,5.66,11.46,11,17.2,16.49Z"/></svg>