<svg id="Layer_1" data-name="Layer 1" xmlns="http://www.w3.org/2000/svg" viewBox="0 0 947.11 225.99"><defs><style>.cls-1,.cls-2,.cls-3{fill:#fff;}.cls-1,.cls-2{stroke:#000;stroke-miterlimit:10;}.cls-1{stroke-width:6.1px;}.cls-2{stroke-width:4.05px;}</style></defs><title>guessbtn</title><rect class="cls-1" x="16.94" y="17.5" width="914.67" height="194.2"/><rect class="cls-2" x="33.1" y="33.22" width="882.36" height="162.75"/><path d="M941.35,181.8V170.7h-6.3v-5.54h-10v-5.61H902.84v5.58h-10v5.56h-6.3V181.8h-5.62v22.08h5.61v-5.47h6.3v5.47h15.63V192.24h10.62v11.64h16v-5.4h6.3v5.4h5.76V181.8Zm-27.36,0h-5.52v4.85h-5.64v-4.83h-5.19v-5.77h5.17V170.7h5.64V176H914Z"/><polygon class="cls-3" points="886.51 203.87 886.52 203.88 886.51 203.88 886.51 203.87"/><polygon class="cls-3" points="892.82 213.94 892.83 213.95 892.82 213.95 892.82 213.94"/><polygon class="cls-3" points="903.17 219.97 903.18 219.98 903.17 219.98 903.17 219.97"/><polygon class="cls-3" points="924.69 219.98 924.7 219.97 924.7 219.98 924.69 219.98"/><polygon class="cls-3" points="935.04 213.95 935.05 213.94 935.05 213.95 935.04 213.95"/><polygon class="cls-3" points="941.35 203.87 941.35 203.88 941.35 203.88 941.35 203.87"/><path class="cls-3" d="M892.82,203.88h15.62v5.6h10.64v-5.6h16V214H924.69v6H903.18v-6H892.83V203.87Z"/><path class="cls-3" d="M908.47,181.8v4.85h-5.64v-4.83h-5.19v-5.77h5.17v-5.34h5.64V176H914v5.78Z"/><path class="cls-3" d="M908.45,203.88V192.24h10.62v11.64H908.45Z"/><path class="cls-3" d="M886.52,203.88v-5.47h6.3v5.47h-6.3Z"/><path class="cls-3" d="M935.05,203.88v-5.4h6.3v5.4h-6.3Z"/><path d="M924.7,220v6H903.17v-6H924.7Z"/><rect x="886.51" y="203.87" width="6.31" height="10.08"/><rect x="935.04" y="203.87" width="6.31" height="10.08"/><rect x="892.82" y="213.94" width="10.36" height="6.04"/><rect x="924.69" y="213.94" width="10.36" height="6.04"/><path d="M908.44,203.87h10.64v5.6H908.44Z"/><path d="M941.35,22.25V11.16h-6.3V5.61h-10V0H902.84V5.58h-10v5.56h-6.3V22.25h-5.62V44.33h5.61V38.86h6.3v5.47h15.63V32.69h10.62V44.33h16v-5.4h6.3v5.4h5.76V22.25Zm-27.36,0h-5.52V27.1h-5.64V22.28h-5.19V16.5h5.17V11.16h5.64v5.31H914Z"/><polygon class="cls-3" points="886.51 44.32 886.52 44.33 886.51 44.33 886.51 44.32"/><polygon class="cls-3" points="892.82 54.39 892.83 54.4 892.82 54.4 892.82 54.39"/><polygon class="cls-3" points="903.17 60.42 903.18 60.44 903.17 60.44 903.17 60.42"/><polygon class="cls-3" points="924.69 60.44 924.7 60.42 924.7 60.44 924.69 60.44"/><polygon class="cls-3" points="935.04 54.4 935.05 54.39 935.05 54.4 935.04 54.4"/><polygon class="cls-3" points="941.35 44.32 941.35 44.33 941.35 44.33 941.35 44.32"/><path class="cls-3" d="M892.82,44.33h15.62v5.6h10.64v-5.6h16V54.4H924.69v6H903.18v-6H892.83V44.32Z"/><path class="cls-3" d="M908.47,22.26V27.1h-5.64V22.28h-5.19V16.5h5.17V11.16h5.64v5.31H914v5.79Z"/><path class="cls-3" d="M908.45,44.33V32.69h10.62V44.33H908.45Z"/><path class="cls-3" d="M886.52,44.33V38.86h6.3v5.47h-6.3Z"/><path class="cls-3" d="M935.05,44.33v-5.4h6.3v5.4h-6.3Z"/><path d="M924.7,60.43v6H903.17v-6H924.7Z"/><rect x="886.51" y="44.32" width="6.31" height="10.08"/><rect x="935.04" y="44.32" width="6.31" height="10.08"/><rect x="892.82" y="54.39" width="10.36" height="6.04"/><rect x="924.69" y="54.39" width="10.36" height="6.04"/><path d="M908.44,44.32h10.64v5.6H908.44Z"/><path d="M60.44,181.8V170.7h-6.3v-5.54h-10v-5.61H21.93v5.58h-10v5.56H5.62V181.8H0v22.08H5.61v-5.47H11.9v5.47H27.54V192.24H38.16v11.64h16v-5.4h6.29v5.4h5.76V181.8Zm-27.37,0H27.55v4.85H21.92v-4.83H16.73v-5.77H21.9V170.7h5.63V176h5.54Z"/><polygon class="cls-3" points="5.6 203.87 5.61 203.88 5.6 203.88 5.6 203.87"/><polygon class="cls-3" points="11.9 213.94 11.91 213.95 11.9 213.95 11.9 213.94"/><polygon class="cls-3" points="22.25 219.97 22.26 219.98 22.25 219.98 22.25 219.97"/><polygon class="cls-3" points="43.78 219.98 43.79 219.97 43.79 219.98 43.78 219.98"/><polygon class="cls-3" points="54.13 213.95 54.14 213.94 54.14 213.95 54.13 213.95"/><polygon class="cls-3" points="60.44 203.87 60.44 203.88 60.43 203.88 60.44 203.87"/><path class="cls-3" d="M11.9,203.88H27.53v5.6H38.16v-5.6h16V214H43.78v6H22.26v-6H11.91V203.87Z"/><path class="cls-3" d="M27.55,181.8v4.85H21.92v-4.83H16.73v-5.77H21.9v-5.34h5.63V176h5.54v5.78Z"/><path class="cls-3" d="M27.54,203.88V192.24H38.16v11.64H27.54Z"/><path class="cls-3" d="M5.61,203.88v-5.47H11.9v5.47H5.61Z"/><path class="cls-3" d="M54.14,203.88v-5.4h6.29v5.4H54.14Z"/><path d="M43.79,220v6H22.25v-6H43.79Z"/><rect x="5.6" y="203.87" width="6.31" height="10.08"/><rect x="54.13" y="203.87" width="6.31" height="10.08"/><rect x="11.9" y="213.94" width="10.36" height="6.04"/><rect x="43.78" y="213.94" width="10.36" height="6.04"/><path d="M27.53,203.87H38.16v5.6H27.53Z"/><path d="M60.44,22.25V11.16h-6.3V5.61h-10V0H21.93V5.58h-10v5.56H5.62V22.25H0V44.33H5.61V38.86H11.9v5.47H27.54V32.69H38.16V44.33h16v-5.4h6.29v5.4h5.76V22.25Zm-27.37,0H27.55V27.1H21.92V22.28H16.73V16.5H21.9V11.16h5.63v5.31h5.54Z"/><polygon class="cls-3" points="5.6 44.32 5.61 44.33 5.6 44.33 5.6 44.32"/><polygon class="cls-3" points="11.9 54.39 11.91 54.4 11.9 54.4 11.9 54.39"/><polygon class="cls-3" points="22.25 60.42 22.26 60.44 22.25 60.44 22.25 60.42"/><polygon class="cls-3" points="43.78 60.44 43.79 60.42 43.79 60.44 43.78 60.44"/><polygon class="cls-3" points="54.13 54.4 54.14 54.39 54.14 54.4 54.13 54.4"/><polygon class="cls-3" points="60.44 44.32 60.44 44.33 60.43 44.33 60.44 44.32"/><path class="cls-3" d="M11.9,44.33H27.53v5.6H38.16v-5.6h16V54.4H43.78v6H22.26v-6H11.91V44.32Z"/><path class="cls-3" d="M27.55,22.26V27.1H21.92V22.28H16.73V16.5H21.9V11.16h5.63v5.31h5.54v5.79Z"/><path class="cls-3" d="M27.54,44.33V32.69H38.16V44.33H27.54Z"/><path class="cls-3" d="M5.61,44.33V38.86H11.9v5.47H5.61Z"/><path class="cls-3" d="M54.14,44.33v-5.4h6.29v5.4H54.14Z"/><path d="M43.79,60.43v6H22.25v-6H43.79Z"/><rect x="5.6" y="44.32" width="6.31" height="10.08"/><rect x="54.13" y="44.32" width="6.31" height="10.08"/><rect x="11.9" y="54.39" width="10.36" height="6.04"/><rect x="43.78" y="54.39" width="10.36" height="6.04"/><path d="M27.53,44.32H38.16v5.6H27.53Z"/></svg>