<svg id="Layer_1" data-name="Layer 1" xmlns="http://www.w3.org/2000/svg" viewBox="0 0 675.36 677.86"><defs><style>.cls-1{fill:#fff;}</style></defs><title>pokeball</title><path d="M600.53,233.51V126.86H540V73.56H443.84v-54H230.32V73.27H134.07v53.42H73.51V233.48h-54V445.72H73.41V393.18h60.53v52.54h.1l145.29-.07c1.62,0,3.24.05,4.86.07h.07V333.88h102V445.72h.1l127.21-.07c8.74,0,17.47.05,26.22.07h.09V393.85h60.53v51.87h.08q27.63,0,55.3-.05V233.51Zm-263.07,0H284.38v46.61H230.22V233.73H180.31V178.25H230V126.86h54.16V178h53.27Z"/><polygon class="cls-1" points="73.34 445.63 73.42 445.72 73.34 445.72 73.34 445.63"/><polygon class="cls-1" points="133.94 542.47 134.04 542.57 133.94 542.57 133.94 542.47"/><polygon class="cls-1" points="233.44 600.45 233.53 600.55 233.44 600.55 233.44 600.45"/><polygon class="cls-1" points="440.33 600.55 440.43 600.45 440.43 600.55 440.33 600.55"/><polygon class="cls-1" points="539.83 542.57 539.92 542.47 539.92 542.57 539.83 542.57"/><polygon class="cls-1" points="600.53 445.63 600.53 445.72 600.45 445.72 600.53 445.63"/><path class="cls-1" d="M134,445.72l145.38-.06c1.64,0,3.28,0,4.93.06l-.09-.09v53.83H386.4V445.63l-.09.09,127.29-.06c8.77,0,17.54,0,26.31.06l-.08-.09v96.94l.09-.09H440.33v58.07l.09-.09q-58.89,0-117.8.06-44.58,0-89.17-.06l.08.09V542.48H134l.09.09V445.63Z"/><path class="cls-1" d="M284.38,233.53v46.6H230.23V233.72H180.31V178.26H230V126.87h54.15V178h53.27v55.58Z"/><path class="cls-1" d="M284.27,445.72V333.88h102V445.72l.09-.09H284.18Z"/><path class="cls-1" d="M73.42,445.72V393.18H134v52.54l.08-.09H73.34Z"/><path class="cls-1" d="M539.91,445.72V393.84h60.53v51.88l.09-.09h-60.7Z"/><path d="M440.43,600.45v57.81h-207V600.45h.1q44.55,0,89.08.07,58.89,0,117.72-.07Z"/><rect x="73.34" y="445.63" width="60.7" height="96.94"/><rect x="539.83" y="445.63" width="60.7" height="96.94"/><rect x="133.94" y="542.47" width="99.59" height="58.08"/><rect x="440.33" y="542.47" width="99.59" height="58.08"/><path d="M284.18,445.63H386.4v53.83H284.18Z"/></svg>